<?xml version="1.0" standalone="no"?>
<!DOCTYPE svg PUBLIC "-//W3C//DTD SVG 20010904//EN"
 "http://www.w3.org/TR/2001/REC-SVG-20010904/DTD/svg10.dtd">
<svg version="1.0" xmlns="http://www.w3.org/2000/svg"
 width="1280.000000pt" height="1065.000000pt" viewBox="0 0 1280.000000 1065.000000"
 preserveAspectRatio="xMidYMid meet">
<metadata>
Created by potrace 1.15, written by Peter Selinger 2001-2017
</metadata>
<g transform="translate(0.000000,1065.000000) scale(0.100000,-0.100000)"
fill="#000000" stroke="none">
<path d="M6260 10620 l0 -30 251 -2 251 -3 -251 -99 -251 -99 0 -44 0 -43 315
0 315 0 0 36 0 37 -259 -5 c-143 -2 -258 0 -255 4 3 4 9 8 14 8 5 0 119 42
252 94 l243 95 3 40 3 41 -315 0 -316 0 0 -30z"/>
<path d="M6397 10186 c-120 -33 -174 -128 -129 -229 36 -81 131 -117 307 -117
202 0 305 49 320 153 14 93 -41 164 -150 192 -73 19 -279 19 -348 1z m383 -86
c83 -46 76 -118 -16 -165 -56 -28 -304 -29 -377 -2 -74 29 -98 92 -54 142 36
42 101 55 262 52 128 -2 144 -5 185 -27z"/>
<path d="M6260 9705 l0 -35 315 0 315 0 0 35 0 35 -315 0 -315 0 0 -35z"/>
<path d="M6260 9430 l0 -170 30 0 30 0 0 70 0 70 286 0 285 0 -3 33 -3 32
-280 2 -280 2 -3 66 c-3 65 -3 65 -32 65 l-30 0 0 -170z"/>
<path d="M1939 9541 c-76 -14 -128 -50 -158 -108 -6 -12 -11 -62 -11 -112 l0
-91 291 0 292 0 -6 91 c-8 127 -45 180 -146 209 -49 15 -206 21 -262 11z m246
-72 c21 -6 54 -26 72 -44 29 -29 33 -40 33 -84 l0 -51 -236 0 -236 0 4 55 c5
63 37 105 91 123 43 14 223 14 272 1z"/>
<path d="M10142 9288 l3 -61 137 -46 c75 -26 139 -49 142 -51 2 -3 -60 -27
-140 -54 l-144 -50 0 -63 c0 -35 4 -63 8 -63 4 0 91 35 193 78 l184 77 135 5
135 5 3 58 3 57 -120 0 -119 0 -207 85 c-113 47 -208 85 -211 85 -3 0 -4 -28
-2 -62z"/>
<path d="M6570 9221 l-305 -76 0 -45 0 -44 300 -73 c165 -39 306 -72 313 -73
9 0 12 11 10 32 -3 32 -5 33 -78 50 -41 9 -85 20 -97 23 -21 5 -23 11 -23 85
0 74 2 80 23 85 12 3 56 14 97 23 l75 17 3 38 c2 20 0 37 -5 36 -4 -1 -145
-35 -313 -78z m60 -127 c0 -60 -2 -65 -19 -59 -10 3 -77 19 -147 34 -143 32
-145 27 24 66 149 35 142 37 142 -41z"/>
<path d="M1845 9120 c-11 -4 -31 -20 -45 -35 -23 -24 -25 -36 -28 -136 l-4
-109 292 0 291 0 -3 28 -3 27 -132 3 -133 3 0 55 c0 45 4 59 25 79 21 22 33
25 107 26 110 1 132 8 136 42 l3 27 -88 0 c-112 -1 -162 -12 -190 -45 -22 -25
-22 -25 -33 -5 -6 11 -24 27 -40 35 -31 16 -122 19 -155 5z m135 -63 c28 -14
49 -64 49 -119 l1 -38 -105 0 -105 0 0 50 c0 85 27 118 100 119 19 0 46 -5 60
-12z"/>
<path d="M10266 8859 c-106 -25 -159 -130 -126 -251 15 -53 85 -111 158 -132
76 -21 284 -22 362 -1 86 23 135 69 146 137 9 52 -3 101 -31 132 l-24 26 25 6
c21 5 24 12 24 50 l0 44 -185 0 -185 0 0 -105 0 -105 50 0 50 0 0 45 0 45 50
0 c97 0 143 -38 126 -105 -11 -42 -58 -59 -184 -63 -205 -7 -284 17 -290 90
-2 29 2 40 24 57 15 11 35 21 45 21 16 0 19 8 19 60 0 33 -3 60 -7 59 -5 -1
-25 -5 -47 -10z"/>
<path d="M6357 8845 c-113 -40 -142 -170 -58 -254 54 -54 132 -74 288 -73 151
0 223 19 269 68 53 56 54 157 3 213 -26 28 -95 60 -127 61 -20 0 -23 -4 -20
-32 3 -26 9 -33 43 -45 55 -19 79 -45 79 -87 0 -81 -78 -110 -282 -104 -154 4
-201 18 -228 70 -22 42 -4 91 40 112 19 9 41 16 50 16 12 0 16 10 16 35 0 40
-11 43 -73 20z"/>
<path d="M2070 8706 c-135 -34 -257 -66 -272 -69 -25 -7 -28 -12 -28 -52 0
-32 4 -45 14 -45 8 0 134 -29 281 -65 146 -36 270 -65 276 -65 5 0 9 13 9 29
0 33 5 30 -113 57 l-78 18 3 75 3 75 90 21 c89 20 90 20 93 53 3 26 0 32 -15
31 -10 0 -128 -29 -263 -63z m40 -123 l0 -55 -42 6 c-24 4 -86 17 -138 30
l-95 22 120 28 c66 15 125 29 130 30 20 6 25 -6 25 -61z"/>
<path d="M2874 8661 c-37 -22 -73 -68 -104 -131 -33 -67 -48 -80 -90 -80 -42
0 -62 18 -62 55 0 33 17 52 53 60 27 6 29 10 29 56 0 42 -3 49 -20 49 -40 0
-100 -32 -119 -64 -81 -135 25 -293 173 -255 54 13 79 39 127 127 58 107 137
133 179 59 13 -24 13 -30 0 -54 -9 -16 -30 -34 -48 -42 -30 -14 -32 -18 -32
-64 l0 -49 38 6 c43 8 77 30 106 70 17 22 21 42 21 101 0 82 -14 111 -75 153
-43 29 -131 31 -176 3z"/>
<path d="M9940 8591 l0 -81 -210 0 -210 0 0 -25 0 -25 230 0 231 0 -3 102 c-3
89 -5 103 -20 106 -16 3 -18 -6 -18 -77z"/>
<path d="M6570 8391 l-305 -76 0 -45 0 -44 300 -73 c165 -40 306 -72 313 -73
9 0 12 11 10 32 -3 32 -5 33 -78 50 -41 9 -85 20 -97 23 -21 5 -23 11 -23 85
0 74 2 80 23 85 12 3 56 14 97 23 l75 17 3 38 c2 20 0 37 -5 36 -4 -1 -145
-35 -313 -78z m60 -127 c0 -58 -2 -65 -17 -60 -49 14 -244 56 -264 56 -43 0
-9 12 113 40 179 40 168 43 168 -36z"/>
<path d="M9735 8345 l-210 -53 -3 -34 -3 -33 231 -56 230 -56 0 27 c0 25 -4
28 -67 41 l-68 14 -3 61 -3 62 53 12 c87 19 88 20 88 46 0 17 -5 24 -17 23
-10 -1 -112 -25 -228 -54z m55 -90 l0 -46 -32 6 c-18 4 -67 14 -108 24 l-75
18 85 20 c129 32 130 32 130 -22z"/>
<path d="M10698 8283 l-3 -118 -92 -3 -93 -3 0 106 0 105 -55 0 -55 0 0 -105
0 -105 -80 0 -80 0 0 110 0 110 -50 0 -50 0 0 -165 0 -165 330 0 330 0 0 165
c0 124 -3 167 -12 170 -7 2 -30 6 -50 10 l-37 6 -3 -118z"/>
<path d="M1834 8341 c-53 -24 -78 -74 -72 -143 7 -64 51 -112 123 -134 117
-35 318 -26 396 18 53 30 73 71 67 141 -5 64 -30 100 -85 123 -53 23 -73 19
-73 -14 0 -25 6 -30 40 -41 31 -9 45 -20 58 -47 15 -32 15 -38 2 -62 -28 -49
-72 -65 -194 -70 -190 -7 -276 24 -276 101 0 44 16 64 65 80 33 11 40 19 41
40 1 23 -3 27 -25 27 -14 0 -44 -9 -67 -19z"/>
<path d="M3030 8181 l0 -101 -85 0 -85 0 0 90 0 90 -45 0 -45 0 0 -90 0 -90
-70 0 -70 0 0 95 0 95 -45 0 -45 0 0 -145 0 -145 290 0 291 0 -3 148 -3 147
-42 3 -43 3 0 -100z"/>
<path d="M5873 8149 c-66 -20 -103 -101 -103 -230 0 -142 47 -229 125 -229 37
0 85 18 85 32 0 4 5 8 10 8 6 0 10 -7 10 -15 0 -8 9 -15 20 -15 19 0 20 7 20
120 l0 120 -65 0 c-58 0 -65 -2 -65 -20 0 -17 7 -20 41 -20 l42 0 -6 -62 c-5
-51 -10 -67 -32 -85 -31 -27 -52 -29 -82 -8 -32 22 -46 77 -45 179 0 132 26
186 88 186 36 0 61 -19 70 -56 8 -31 54 -35 54 -4 0 74 -84 124 -167 99z"/>
<path d="M3300 7925 l0 -225 26 0 27 0 -7 198 c-4 108 -6 195 -3 192 3 -3 24
-92 48 -197 l42 -193 28 0 c27 0 27 0 74 195 26 107 48 195 49 195 1 0 0 -88
-2 -195 l-4 -195 31 0 31 0 -2 223 -3 222 -40 0 -40 0 -46 -180 c-28 -108 -48
-172 -52 -160 -3 11 -22 93 -43 183 l-38 162 -38 0 -38 0 0 -225z"/>
<path d="M3806 8142 c-3 -5 -27 -98 -55 -208 -28 -111 -53 -208 -57 -217 -5
-14 0 -17 23 -17 27 0 29 3 43 68 l15 67 64 0 65 0 16 -65 c14 -58 19 -65 43
-68 15 -2 27 0 27 4 0 5 -26 106 -57 226 l-58 218 -32 0 c-17 0 -34 -4 -37 -8z
m61 -155 c12 -51 22 -95 23 -99 0 -5 -22 -8 -50 -8 -27 0 -50 3 -50 8 0 19 46
200 50 196 2 -3 14 -46 27 -97z"/>
<path d="M4050 7925 l0 -225 25 0 25 0 0 100 0 100 54 0 c36 0 58 -5 67 -16 7
-9 15 -51 17 -100 4 -83 5 -84 31 -84 l26 0 -5 90 c-5 73 -10 94 -27 112 l-22
23 25 28 c23 27 29 52 24 107 -5 65 -52 90 -165 90 l-75 0 0 -225z m164 164
c20 -16 26 -29 26 -60 0 -56 -26 -79 -90 -79 l-50 0 0 80 0 80 44 0 c29 0 52
-7 70 -21z"/>
<path d="M4370 7925 l0 -225 30 0 30 0 0 84 c0 75 3 88 24 113 l24 27 56 -112
c53 -105 58 -112 86 -112 l30 0 -70 133 -70 134 65 86 c36 47 65 89 65 92 0 3
-12 5 -27 5 -24 -1 -39 -17 -103 -106 l-75 -106 -3 106 -3 106 -29 0 -30 0 0
-225z"/>
<path d="M4690 7925 l0 -225 115 0 c108 0 115 1 115 20 0 18 -7 20 -85 20
l-85 0 0 85 0 84 78 3 c69 3 77 5 77 23 0 18 -8 20 -77 23 l-76 3 -4 70 c-2
39 -1 73 1 75 2 2 40 4 83 4 71 0 78 2 78 20 0 19 -7 20 -110 20 l-110 0 0
-225z"/>
<path d="M4957 8143 c-4 -3 -7 -12 -7 -20 0 -9 16 -13 55 -13 l55 0 0 -205 0
-205 30 0 29 0 0 203 0 202 50 3 c43 3 51 6 51 23 0 18 -8 19 -128 19 -71 0
-132 -3 -135 -7z"/>
<path d="M5270 7925 l0 -225 30 0 30 0 0 225 0 225 -30 0 -30 0 0 -225z"/>
<path d="M5420 7925 l0 -225 25 0 25 0 2 185 3 186 75 -183 c75 -180 76 -183
108 -186 l32 -3 0 225 0 226 -26 0 -26 0 4 -180 c2 -98 0 -176 -3 -172 -3 4
-39 85 -79 180 l-72 172 -34 0 -34 0 0 -225z"/>
<path d="M6262 8065 l3 -38 245 -59 c135 -32 256 -61 270 -65 23 -5 21 -7 -15
-14 -22 -5 -145 -32 -272 -61 l-233 -52 0 -37 0 -36 258 63 c416 101 367 83
370 132 2 23 1 42 -3 42 -8 0 -595 151 -612 157 -11 4 -14 -2 -11 -32z"/>
<path d="M9520 8035 l0 -25 230 0 230 0 0 25 0 25 -230 0 -230 0 0 -25z"/>
<path d="M10140 7780 l0 -200 50 0 50 0 0 70 0 70 280 0 280 0 0 60 0 60 -280
0 -280 0 0 70 0 70 -50 0 -50 0 0 -200z"/>
<path d="M9562 7920 c-87 -53 -62 -175 43 -213 68 -24 274 -20 322 6 84 45 83
171 -1 211 -47 22 -76 21 -76 -4 0 -13 14 -25 46 -39 43 -19 45 -22 42 -57 -5
-58 -37 -76 -152 -82 -101 -5 -178 8 -208 35 -26 23 -23 78 4 97 12 9 30 16
40 16 13 0 18 8 18 25 0 32 -31 34 -78 5z"/>
<path d="M2540 7745 l0 -175 45 0 45 0 0 60 0 60 245 0 245 0 0 55 0 55 -245
0 -245 0 0 60 0 60 -45 0 -45 0 0 -175z"/>
<path d="M1770 7685 l0 -165 25 0 c24 0 25 2 25 65 l0 65 263 2 262 3 0 30 0
30 -262 3 -263 2 0 65 c0 63 -1 65 -25 65 l-25 0 0 -165z"/>
<path d="M9662 7619 c-103 -13 -152 -56 -152 -134 0 -96 144 -153 321 -126
114 18 159 56 159 136 0 96 -134 147 -328 124z m239 -68 c36 -18 52 -54 38
-85 -17 -37 -55 -49 -168 -54 -148 -6 -211 16 -211 76 0 38 11 51 56 68 48 18
246 14 285 -5z"/>
<path d="M10450 7546 l-305 -73 -3 -76 c-2 -65 0 -76 15 -81 28 -9 626 -146
635 -146 5 0 8 26 6 58 l-3 57 -80 15 -80 15 -3 77 -3 76 48 10 c26 6 65 14
86 17 l37 7 0 59 c0 55 -2 59 -22 58 -13 -1 -160 -34 -328 -73z m77 -203 c-3
-2 -61 7 -131 22 -69 14 -129 26 -133 26 -4 1 53 14 127 29 l135 27 3 -50 c2
-27 1 -51 -1 -54z"/>
<path d="M7265 7544 c-11 -2 -44 -9 -73 -15 -131 -27 -183 -173 -94 -270 45
-51 106 -69 233 -69 175 0 248 29 283 111 40 97 -6 194 -107 224 -53 16 -205
28 -242 19z m235 -123 c30 -14 35 -21 35 -50 0 -58 -34 -74 -167 -79 -165 -6
-228 16 -228 78 0 21 8 35 26 46 51 34 266 37 334 5z"/>
<path d="M2540 7460 l0 -50 290 0 290 0 0 50 0 50 -290 0 -290 0 0 -50z"/>
<path d="M3384 7500 c-29 -12 -70 -63 -86 -107 -8 -24 -13 -84 -13 -163 1
-140 19 -202 69 -235 39 -26 105 -29 146 -8 40 21 80 75 80 109 0 20 -5 24
-28 24 -23 0 -30 -6 -37 -32 -14 -45 -57 -75 -91 -62 -41 14 -64 53 -75 130
-11 72 -5 188 12 233 16 42 50 71 81 71 36 0 78 -40 78 -75 0 -21 5 -25 30
-25 26 0 30 3 30 29 0 34 -37 91 -70 108 -28 14 -95 16 -126 3z"/>
<path d="M3733 7490 c-18 -10 -42 -39 -55 -62 -21 -39 -23 -56 -23 -183 0
-122 3 -146 22 -187 28 -60 63 -83 129 -83 93 0 138 55 157 191 12 89 0 209
-28 268 -10 21 -32 47 -49 57 -41 25 -112 25 -153 -1z m116 -40 c10 -5 26 -29
36 -52 21 -53 23 -243 3 -302 -16 -49 -57 -81 -92 -72 -61 15 -86 81 -86 228
1 137 32 208 92 208 16 0 37 -4 47 -10z"/>
<path d="M6270 7488 c-66 -45 -93 -153 -79 -317 11 -129 54 -189 140 -198 59
-6 107 20 137 73 48 89 49 309 0 395 -38 68 -133 91 -198 47z m134 -58 c31
-38 39 -91 34 -222 -3 -72 -9 -113 -21 -136 -36 -66 -103 -67 -141 -2 -17 28
-22 57 -25 149 -4 124 7 181 42 219 31 33 79 30 111 -8z"/>
<path d="M4057 7243 l2 -258 26 -3 25 -3 1 228 1 228 34 -155 c73 -333 62
-300 95 -300 33 0 27 -17 94 265 l44 180 0 -222 1 -223 30 0 30 0 0 260 0 260
-45 0 c-51 0 -40 26 -110 -255 l-42 -170 -12 60 c-7 33 -29 129 -49 213 l-36
152 -45 0 -46 0 2 -257z"/>
<path d="M4550 7240 l0 -260 30 0 30 0 0 115 0 115 63 0 c112 0 163 54 155
163 -4 54 -8 63 -41 93 -37 34 -37 34 -137 34 l-100 0 0 -260z m198 185 c32
-37 31 -107 -3 -140 -20 -21 -34 -25 -80 -25 l-55 0 0 101 0 102 58 -6 c45 -5
62 -12 80 -32z"/>
<path d="M4902 7243 l3 -258 126 -3 127 -3 4 26 5 25 -103 0 -104 0 0 100 0
100 95 0 c94 0 95 0 95 25 0 24 -2 24 -92 27 l-93 3 -3 83 -3 82 94 0 c93 0
95 0 99 25 l5 25 -129 0 -128 0 2 -257z"/>
<path d="M5200 7475 c0 -24 3 -25 60 -25 l60 0 0 -235 0 -235 30 0 30 0 0 235
0 235 60 0 c57 0 60 1 60 25 l0 25 -150 0 -150 0 0 -25z"/>
<path d="M5560 7240 l0 -260 30 0 30 0 0 260 0 260 -30 0 -30 0 0 -260z"/>
<path d="M5680 7475 c0 -24 3 -25 60 -25 l60 0 0 -235 0 -235 30 0 30 0 0 235
0 235 60 0 c57 0 60 1 60 25 l0 25 -150 0 -150 0 0 -25z"/>
<path d="M6040 7240 l0 -260 30 0 30 0 0 260 0 260 -30 0 -30 0 0 -260z"/>
<path d="M6590 7240 l0 -260 30 0 31 0 -3 214 c-2 118 -1 212 2 210 3 -3 43
-98 90 -212 l85 -207 38 -3 37 -3 0 260 0 261 -31 0 -30 0 3 -209 c2 -115 0
-204 -4 -198 -3 7 -34 80 -68 162 -111 269 -97 245 -141 245 l-39 0 0 -260z"/>
<path d="M1770 7435 l0 -35 288 2 287 3 0 30 0 30 -287 3 -288 2 0 -35z"/>
<path d="M2880 7322 c-33 -18 -61 -53 -122 -156 -15 -26 -39 -51 -53 -56 -50
-19 -100 23 -87 74 3 10 22 26 44 34 36 14 38 17 38 58 0 24 -4 46 -10 49 -18
11 -86 -14 -112 -42 -85 -90 -39 -257 77 -279 86 -16 150 24 205 127 45 85 61
99 115 99 36 0 48 -5 61 -25 26 -40 10 -84 -37 -104 -37 -15 -39 -18 -39 -63
0 -45 2 -48 26 -48 37 0 98 37 118 72 10 16 20 55 23 86 4 46 0 65 -19 101
-32 62 -66 84 -135 88 -43 3 -67 -1 -93 -15z"/>
<path d="M1923 7301 c-60 -15 -108 -47 -130 -87 -19 -33 -23 -54 -23 -131 l0
-93 291 0 292 0 -6 89 c-3 49 -12 103 -21 119 -21 40 -68 79 -114 93 -46 14
-246 21 -289 10z m241 -67 c85 -11 126 -56 126 -139 l0 -45 -235 0 -235 0 0
40 c0 133 100 175 344 144z"/>
<path d="M9788 7284 c-15 -8 -45 -45 -67 -83 -43 -73 -53 -81 -107 -81 -70 0
-84 88 -18 116 38 16 48 54 14 54 -53 0 -100 -49 -100 -105 0 -72 53 -120 128
-117 48 2 80 27 118 92 41 69 67 90 114 90 30 0 43 -6 59 -26 12 -15 21 -34
21 -44 0 -26 -36 -67 -65 -74 -19 -5 -25 -13 -25 -32 0 -23 3 -25 28 -20 36 9
74 37 89 67 27 52 8 130 -39 163 -28 20 -114 20 -150 0z"/>
<path d="M7530 7041 l0 -101 -80 0 -80 0 0 91 0 90 -42 -3 -43 -3 -3 -87 -3
-88 -64 0 -64 0 -3 93 -3 92 -40 0 -40 0 -3 -142 -3 -143 281 0 280 0 0 145
c0 144 0 145 -22 145 -13 0 -33 3 -45 6 -23 6 -23 5 -23 -95z"/>
<path d="M10230 7098 c-73 -37 -90 -83 -90 -240 l0 -128 330 0 330 0 0 60 0
60 -140 0 -140 0 0 48 c0 26 4 52 8 58 15 23 53 34 115 34 35 0 85 3 111 6
l46 7 0 56 0 56 -102 -3 c-124 -4 -172 -15 -205 -48 l-24 -24 -25 30 c-45 53
-140 65 -214 28z m165 -123 c20 -19 25 -34 25 -75 l0 -50 -95 0 -95 0 0 28 c0
44 19 101 38 111 9 6 36 11 60 11 32 0 49 -6 67 -25z"/>
<path d="M2288 6813 l-3 -108 -107 -3 -108 -3 0 101 0 100 -30 0 -30 0 0 -100
0 -101 -92 3 -93 3 -3 103 c-3 101 -3 102 -27 102 l-25 0 0 -135 0 -135 288 2
287 3 3 131 c3 129 2 132 -20 138 -13 3 -26 6 -30 6 -4 0 -9 -48 -10 -107z"/>
<path d="M7850 6852 c-21 -21 -43 -55 -49 -77 -14 -52 -14 -243 0 -286 41
-123 203 -144 269 -36 11 18 20 45 20 60 0 27 -2 28 -42 25 -38 -3 -43 -6 -50
-35 -6 -24 -16 -35 -35 -39 -57 -15 -82 35 -82 171 -1 105 12 160 40 176 34
18 67 3 77 -34 7 -29 12 -32 50 -35 39 -3 42 -2 42 23 0 35 -24 79 -56 104
-20 16 -41 21 -87 21 -55 0 -62 -2 -97 -38z"/>
<path d="M8240 6883 c-26 -10 -51 -37 -74 -78 -18 -35 -21 -56 -21 -165 0
-112 3 -130 24 -174 31 -62 88 -92 159 -81 99 15 138 100 130 286 -6 162 -48
220 -155 218 -26 0 -55 -3 -63 -6z m90 -73 c28 -15 40 -65 40 -172 0 -140 -24
-189 -83 -174 -34 8 -49 49 -54 151 -9 156 29 232 97 195z"/>
<path d="M8530 6693 c0 -218 6 -245 63 -287 38 -28 140 -29 180 -3 58 38 62
53 65 279 l3 208 -45 0 -46 0 0 -193 c0 -219 -5 -237 -65 -237 -60 0 -65 18
-65 237 l0 193 -45 0 -45 0 0 -197z"/>
<path d="M8920 6640 l0 -250 45 0 45 0 0 99 0 98 54 6 c104 11 146 53 146 147
0 109 -55 149 -202 150 l-88 0 0 -250z m188 153 c16 -22 16 -84 -1 -107 -7 -9
-32 -20 -55 -23 l-42 -6 0 83 0 83 43 -7 c23 -4 48 -14 55 -23z"/>
<path d="M9342 6870 c-56 -35 -76 -95 -77 -230 0 -103 3 -120 25 -164 35 -69
68 -91 136 -90 93 0 136 49 156 177 13 86 1 203 -27 258 -35 67 -143 91 -213
49z m124 -71 c17 -19 19 -37 19 -159 0 -122 -2 -140 -19 -159 -24 -26 -58 -27
-80 -2 -43 47 -43 275 0 322 23 25 56 24 80 -2z"/>
<path d="M9660 6640 l0 -250 41 0 40 0 -3 174 c-2 96 -1 172 2 170 2 -3 31
-80 65 -172 l60 -167 48 0 48 0 0 245 0 245 -38 0 -38 0 2 -163 c2 -103 -1
-161 -7 -157 -6 3 -10 11 -10 17 0 6 -25 78 -56 159 l-57 149 -48 0 -49 0 0
-250z"/>
<path d="M11022 6844 c-45 -23 -66 -66 -59 -121 6 -54 29 -81 108 -123 69 -36
94 -68 85 -105 -14 -56 -95 -55 -116 0 -8 21 -16 25 -50 25 -34 0 -40 -3 -40
-21 0 -33 31 -77 66 -94 49 -23 134 -20 175 8 45 30 65 89 50 144 -13 49 -34
68 -120 113 -61 33 -66 38 -69 72 -3 29 1 39 19 48 29 16 66 -1 75 -35 5 -21
12 -25 44 -25 22 0 41 3 43 8 9 15 -14 69 -38 92 -33 31 -124 39 -173 14z"/>
<path d="M11396 6852 c-6 -11 -103 -396 -108 -432 -3 -23 0 -25 37 -25 l40 0
14 58 13 57 58 0 58 0 7 -47 c4 -27 12 -54 17 -60 12 -14 74 -18 82 -5 3 5
-21 109 -52 233 l-57 224 -52 3 c-28 2 -54 -1 -57 -6z m73 -172 c7 -36 14 -73
17 -82 5 -15 -1 -18 -37 -18 l-41 0 6 33 c4 17 12 60 19 94 13 70 19 66 36
-27z"/>
<path d="M11665 6848 c-3 -7 -4 -112 -3 -233 l3 -220 114 -3 c63 -1 118 1 122
5 4 4 9 21 11 36 l3 29 -80 1 -80 2 -5 195 -5 195 -38 3 c-24 2 -39 -1 -42
-10z"/>
<path d="M11964 6847 c-2 -7 -3 -111 -2 -232 l3 -220 119 -3 c129 -3 136 0
136 51 l0 27 -85 0 -85 0 0 65 0 65 75 0 75 0 0 35 0 35 -75 0 -75 0 0 55 0
55 80 0 80 0 0 40 0 40 -120 0 c-89 0 -122 -3 -126 -13z"/>
<path d="M6502 6813 c3 -37 4 -37 81 -62 42 -14 77 -28 77 -32 0 -4 -11 -10
-25 -13 -14 -4 -50 -16 -80 -27 -54 -20 -55 -21 -55 -59 l0 -39 119 50 c108
44 128 49 195 49 l76 0 0 35 0 35 -71 0 c-61 0 -85 6 -191 50 -66 28 -123 50
-125 50 -2 0 -3 -17 -1 -37z"/>
<path d="M2762 6817 c-49 -15 -118 -81 -147 -140 -39 -81 -56 -184 -56 -342 0
-155 12 -249 41 -328 48 -128 129 -187 258 -187 94 0 142 14 192 58 49 41 84
107 107 199 25 99 24 412 -1 502 -36 130 -104 218 -185 241 -46 13 -166 11
-209 -3z m180 -167 c46 -49 53 -95 53 -330 -1 -190 -3 -221 -20 -264 -24 -58
-62 -90 -110 -90 -68 0 -107 66 -126 214 -13 111 -6 311 14 388 31 114 122
154 189 82z"/>
<path d="M3320 6325 l0 -495 75 0 76 0 -3 359 c-2 198 -2 358 -1 357 1 -1 54
-150 118 -331 64 -182 121 -342 127 -357 10 -28 11 -28 104 -28 l94 0 0 495 0
495 -81 0 -82 0 5 -340 4 -339 -67 187 c-37 103 -91 255 -122 337 l-54 150
-97 3 -96 3 0 -496z"/>
<path d="M4075 6808 c-3 -7 -4 -229 -3 -493 l3 -480 243 -3 c225 -2 242 -1
243 15 0 10 4 44 8 76 l7 57 -163 0 -163 0 0 420 0 420 -85 0 c-59 0 -87 -4
-90 -12z"/>
<path d="M4662 6328 l3 -493 85 0 85 0 0 490 0 490 -88 3 -87 3 2 -493z"/>
<path d="M5010 6325 l0 -495 75 0 76 0 -3 359 c-2 198 0 357 5 354 4 -2 7 -10
7 -17 0 -10 112 -332 216 -623 l26 -73 94 0 94 0 0 495 0 495 -81 0 -82 0 5
-342 6 -341 -93 259 c-51 142 -106 295 -122 339 l-29 80 -97 3 -97 3 0 -496z"/>
<path d="M5770 6325 l0 -495 244 0 244 0 6 28 c2 15 8 48 11 74 l6 48 -173 2
-173 3 -3 142 -3 142 157 3 156 3 0 75 0 75 -153 2 -154 2 0 118 0 118 163 3
162 2 0 75 0 75 -245 0 -245 0 0 -495z"/>
<path d="M7188 6744 c-57 -17 -104 -62 -118 -112 -5 -20 -10 -76 -10 -124 l0
-88 281 0 282 0 -5 103 c-7 146 -35 190 -141 222 -64 19 -226 19 -289 -1z
m298 -107 c31 -16 54 -59 54 -99 0 -17 -10 -18 -197 -16 l-198 3 3 40 c6 77
47 95 202 92 75 -2 114 -8 136 -20z"/>
<path d="M10140 6470 l0 -200 50 0 49 0 3 68 3 67 278 3 277 2 0 55 0 55 -277
2 -278 3 -3 73 -3 72 -49 0 -50 0 0 -200z"/>
<path d="M6730 6569 c-14 -5 -31 -17 -37 -26 -12 -15 -14 -15 -31 0 -19 17
-85 23 -117 11 -29 -12 -45 -60 -45 -139 l0 -75 195 0 195 0 0 70 c0 91 -19
136 -64 155 -40 17 -61 18 -96 4z m74 -69 c22 -8 26 -16 26 -50 l0 -40 -61 0
-60 0 3 37 c2 28 9 41 28 50 30 15 32 15 64 3z m-166 -12 c7 -7 12 -27 12 -45
0 -32 -1 -33 -45 -33 -44 0 -45 1 -45 33 0 38 15 57 45 57 12 0 26 -5 33 -12z"/>
<path d="M1850 6537 c-19 -7 -44 -27 -57 -46 -20 -30 -23 -46 -23 -137 l0
-104 290 0 290 0 0 30 0 30 -135 0 -135 0 0 56 c0 61 10 87 37 100 10 4 65 10
123 13 l105 6 3 31 3 32 -93 -5 c-131 -6 -157 -11 -184 -38 l-23 -23 -18 20
c-39 45 -114 59 -183 35z m146 -80 c23 -20 27 -31 28 -83 l1 -59 -104 -3 -103
-3 4 67 c3 55 8 70 27 85 34 28 112 26 147 -4z"/>
<path d="M7060 6270 l0 -50 278 2 277 3 3 48 3 47 -280 0 -281 0 0 -50z"/>
<path d="M6865 6305 c-5 -2 -90 -22 -187 -45 l-178 -42 0 -43 c0 -33 4 -45 18
-49 18 -6 363 -86 368 -86 2 0 4 16 4 35 0 32 -3 35 -37 40 -62 11 -63 12 -63
59 l0 44 48 8 c45 9 47 10 50 47 3 35 0 40 -23 32z m-135 -135 c0 -34 3 -33
-53 -21 -111 25 -108 23 -47 36 91 21 100 19 100 -15z"/>
<path d="M7854 6224 c-46 -22 -65 -64 -71 -153 -12 -176 52 -265 164 -228 59
19 83 76 82 192 -1 109 -15 153 -59 183 -38 26 -73 28 -116 6z m91 -74 c18
-34 21 -171 4 -218 -21 -60 -71 -48 -90 21 -16 60 -7 182 16 207 26 28 52 25
70 -10z"/>
<path d="M8874 6221 c-49 -30 -67 -88 -62 -209 4 -116 19 -148 81 -169 67 -23
140 20 149 86 3 21 -2 25 -29 28 -28 4 -33 0 -39 -22 -7 -29 -35 -48 -58 -39
-23 9 -36 60 -36 148 0 90 14 129 48 134 16 3 27 -5 40 -27 13 -25 24 -31 50
-31 30 0 32 2 26 28 -11 43 -33 70 -66 81 -44 16 -69 14 -104 -8z"/>
<path d="M9524 6221 c-49 -30 -67 -88 -62 -209 4 -116 19 -148 81 -169 67 -23
141 20 149 87 3 22 -1 25 -29 28 -24 2 -33 -1 -33 -11 0 -8 -8 -25 -18 -37
-24 -30 -57 -20 -71 22 -14 41 -14 180 1 212 20 46 68 43 83 -5 5 -14 16 -19
41 -19 32 0 34 2 28 28 -11 46 -24 63 -59 78 -46 19 -74 18 -111 -5z"/>
<path d="M8090 6035 l0 -195 30 0 30 0 1 138 c0 153 -1 154 60 -20 l41 -118
39 0 39 0 0 195 0 195 -30 0 -29 0 -3 -127 -3 -128 -27 70 c-15 39 -37 96 -48
128 -21 56 -22 57 -61 57 l-39 0 0 -195z"/>
<path d="M8400 6035 l0 -195 99 0 99 0 4 30 5 30 -69 0 -68 0 0 60 0 60 60 0
60 0 0 30 0 30 -60 0 -60 0 0 45 0 45 65 0 65 0 0 30 0 30 -100 0 -100 0 0
-195z"/>
<path d="M9090 6035 l0 -195 100 0 100 0 0 30 0 30 -65 0 -65 0 0 165 0 165
-35 0 -35 0 0 -195z"/>
<path d="M9330 6035 l0 -195 35 0 35 0 0 195 0 195 -35 0 -35 0 0 -195z"/>
<path d="M9740 6035 l0 -195 35 0 35 0 0 68 c0 48 5 73 18 90 l18 23 36 -88
c35 -86 36 -88 72 -91 20 -2 36 1 36 6 0 6 -22 60 -49 120 l-49 111 33 48 c17
26 40 60 50 76 l17 27 -40 0 c-40 0 -41 -1 -89 -82 l-48 -83 -3 83 -3 82 -34
0 -35 0 0 -195z"/>
<path d="M10518 6210 c-39 -21 -79 -72 -121 -155 -33 -66 -60 -89 -104 -89
-38 0 -73 30 -73 63 0 28 29 60 63 69 31 8 32 10 32 63 l0 54 -39 -2 c-119 -7
-185 -153 -123 -273 32 -63 65 -83 141 -88 106 -7 149 26 219 165 34 67 68 93
122 93 51 0 79 -26 79 -75 0 -41 -26 -72 -68 -83 -30 -8 -31 -11 -34 -66 l-3
-59 43 7 c85 14 141 69 154 152 13 91 -15 171 -79 218 -41 30 -158 34 -209 6z"/>
<path d="M11000 6203 c0 -5 20 -87 43 -183 l43 -175 40 -3 39 -3 46 186 46
185 -33 0 c-27 0 -35 -5 -39 -22 -3 -13 -14 -66 -25 -118 -11 -52 -23 -106
-26 -120 -4 -17 -15 18 -35 115 -16 77 -29 141 -29 143 0 1 -16 2 -35 2 -19 0
-35 -3 -35 -7z"/>
<path d="M11290 6025 l0 -185 35 0 35 0 0 185 0 185 -35 0 -35 0 0 -185z"/>
<path d="M11420 6025 l0 -185 35 0 35 0 0 80 0 80 29 0 c40 0 49 -16 53 -90
l3 -65 34 -3 34 -3 -6 76 c-3 47 -11 83 -20 93 -14 15 -13 20 4 41 35 43 20
128 -28 150 -13 6 -57 11 -98 11 l-75 0 0 -185z m145 111 c27 -41 -2 -86 -56
-86 -16 0 -19 7 -19 55 0 54 0 55 30 55 20 0 34 -8 45 -24z"/>
<path d="M11715 6043 c-21 -93 -40 -176 -43 -186 -4 -16 1 -18 29 -15 31 3 35
7 43 46 9 42 9 42 52 42 46 0 47 -1 56 -65 2 -14 12 -21 36 -23 40 -4 40 -5 1
162 -52 226 -43 206 -92 206 l-43 0 -39 -167z m98 19 l14 -72 -29 0 c-15 0
-28 5 -28 11 0 20 23 139 27 136 1 -2 9 -36 16 -75z"/>
<path d="M11960 6025 l0 -186 93 3 92 3 3 28 c3 27 3 27 -57 27 l-61 0 0 155
0 155 -35 0 -35 0 0 -185z"/>
<path d="M1875 6161 c-76 -18 -115 -67 -115 -142 0 -61 31 -107 95 -139 47
-24 59 -25 210 -25 144 0 164 2 200 21 64 35 79 57 83 127 5 93 -31 138 -130
161 -26 6 -28 4 -28 -28 0 -30 3 -34 34 -40 64 -12 94 -80 57 -127 -29 -37
-98 -54 -221 -54 -128 0 -170 8 -210 41 -24 20 -30 34 -30 63 0 44 19 65 70
78 30 8 35 14 35 38 0 32 -7 36 -50 26z"/>
<path d="M7060 6120 c0 -27 2 -50 4 -50 5 0 371 -78 406 -86 17 -4 -47 -21
-190 -50 -118 -24 -216 -44 -217 -44 -2 0 -3 -25 -3 -56 0 -48 2 -55 18 -50 9
3 118 30 242 61 124 31 242 61 263 66 l38 10 -3 57 -3 57 -260 67 c-143 36
-268 67 -277 67 -15 1 -18 -8 -18 -49z"/>
<path d="M8632 5993 c3 -27 6 -28 66 -31 l62 -3 0 31 0 30 -66 0 -65 0 3 -27z"/>
<path d="M6703 5989 c-20 -20 -22 -21 -44 -5 -38 27 -96 21 -130 -13 -27 -28
-29 -34 -29 -110 l0 -81 196 0 196 0 -3 86 c-4 82 -5 87 -37 115 -42 37 -115
41 -149 8z m-72 -59 c13 -8 19 -21 19 -45 0 -35 0 -35 -45 -35 -45 0 -45 0
-45 35 0 46 31 66 71 45z m187 -2 c7 -7 12 -27 12 -45 l0 -33 -60 0 c-58 0
-60 1 -60 26 0 45 17 64 58 64 21 0 43 -5 50 -12z"/>
<path d="M103 5599 c-72 -21 -109 -120 -101 -269 8 -132 42 -181 131 -187 64
-5 111 21 133 72 23 55 19 65 -23 65 -33 0 -40 -5 -53 -33 -12 -26 -21 -32
-45 -32 -45 0 -58 36 -58 162 1 89 4 109 20 131 29 38 64 36 83 -5 13 -28 20
-33 53 -33 42 0 46 10 23 65 -24 57 -95 85 -163 64z"/>
<path d="M427 5600 c-71 -22 -100 -87 -101 -220 0 -164 36 -228 132 -238 64
-6 105 16 134 71 20 36 23 57 23 157 0 95 -3 122 -20 154 -33 66 -102 97 -168
76z m69 -68 c28 -18 38 -60 38 -157 0 -116 -14 -158 -55 -163 -16 -2 -32 5
-45 19 -17 18 -19 36 -19 144 0 107 2 126 19 144 20 21 42 26 62 13z"/>
<path d="M2303 5599 c-47 -14 -83 -62 -83 -110 0 -59 21 -90 87 -128 83 -49
93 -60 93 -97 0 -37 -22 -64 -51 -64 -23 0 -59 34 -59 55 0 11 -11 15 -40 15
-34 0 -40 -3 -40 -20 0 -62 62 -110 143 -110 116 0 177 130 102 218 -13 16
-51 43 -84 61 -44 23 -63 39 -67 58 -9 34 6 57 40 61 20 3 30 -3 44 -27 14
-26 23 -31 55 -31 41 0 43 5 23 55 -24 57 -95 85 -163 64z"/>
<path d="M2633 5599 c-71 -21 -110 -122 -100 -261 9 -133 56 -198 142 -198 59
0 101 26 127 78 20 40 23 63 23 157 0 90 -4 117 -20 149 -34 68 -101 97 -172
75z m83 -80 c16 -17 20 -40 22 -128 5 -135 -10 -181 -57 -181 -38 0 -51 22
-61 107 -20 157 34 270 96 202z"/>
<path d="M4157 5596 c-85 -31 -146 -96 -168 -181 -16 -58 -6 -172 19 -221 30
-58 98 -115 203 -169 143 -74 189 -124 189 -207 0 -93 -62 -149 -146 -133 -52
9 -102 61 -110 114 l-7 41 -94 0 -95 0 7 -47 c9 -65 39 -131 78 -171 127 -132
414 -112 508 36 38 60 49 101 49 184 0 149 -64 231 -259 333 -117 61 -160 99
-162 143 -4 92 13 126 69 143 73 21 127 -20 147 -113 l5 -28 90 0 90 0 0 28
c0 91 -62 192 -144 235 -52 27 -211 35 -269 13z"/>
<path d="M5740 5601 c-46 -14 -85 -39 -121 -78 -81 -84 -109 -181 -116 -398
-11 -322 53 -502 199 -565 39 -17 73 -23 128 -24 182 -1 281 88 327 296 23
104 23 397 0 492 -24 95 -48 146 -93 196 -58 64 -121 90 -219 89 -44 0 -91 -4
-105 -8z m146 -156 c53 -22 82 -93 96 -239 15 -159 -2 -357 -36 -432 -35 -77
-92 -102 -156 -69 -64 33 -99 165 -100 375 0 217 30 328 100 362 43 22 51 22
96 3z"/>
<path d="M9193 5594 c-101 -37 -175 -143 -208 -299 -23 -106 -24 -370 -2 -473
43 -197 128 -284 277 -286 82 -1 128 15 172 60 l35 35 7 -41 6 -40 70 0 70 0
0 295 0 295 -162 -2 -163 -3 0 -75 0 -75 70 -5 70 -5 -3 -75 c-5 -143 -34
-197 -109 -207 -82 -11 -133 45 -153 168 -13 81 -13 325 0 403 12 77 52 159
86 177 71 38 156 -4 172 -85 l8 -41 93 -3 93 -3 -7 48 c-15 102 -63 178 -138
219 -45 25 -64 29 -147 31 -66 2 -108 -2 -137 -13z"/>
<path d="M9810 5607 c0 -5 59 -318 65 -344 4 -18 12 -23 39 -23 l33 0 24 128
25 127 24 -127 23 -128 33 0 c27 0 35 5 39 23 13 56 65 322 65 334 0 8 -11 13
-29 13 -33 0 -33 0 -52 -140 -7 -52 -15 -98 -18 -102 -3 -4 -17 49 -30 117
l-23 125 -29 0 c-16 0 -29 -2 -29 -4 0 -6 -40 -209 -47 -236 -4 -17 -10 9 -19
75 -22 172 -20 165 -59 165 -19 0 -35 -1 -35 -3z"/>
<path d="M10255 5586 c-30 -30 -45 -84 -45 -165 0 -130 37 -186 122 -186 42 0
53 4 74 28 34 39 47 100 41 188 -5 80 -25 132 -56 149 -11 5 -40 10 -66 10
-35 0 -52 -6 -70 -24z m112 -56 c16 -33 16 -178 0 -210 -8 -16 -21 -25 -37
-25 -39 0 -51 36 -48 141 3 98 16 127 52 122 11 -2 26 -14 33 -28z"/>
<path d="M10500 5425 l0 -185 30 0 30 0 1 148 1 147 24 -135 c13 -74 23 -141
24 -148 0 -9 11 -12 33 -10 l32 3 25 140 25 140 3 -142 3 -143 29 0 30 0 0
186 0 185 -47 -3 -47 -3 -13 -65 c-29 -144 -35 -171 -38 -168 -2 2 -11 48 -20
103 -24 144 -19 135 -76 135 l-49 0 0 -185z"/>
<path d="M10860 5425 l0 -185 95 0 95 0 0 30 0 30 -65 0 -65 0 0 50 0 50 60 0
60 0 0 30 0 30 -60 0 -60 0 0 45 0 45 65 0 65 0 0 30 0 30 -95 0 -95 0 0 -185z"/>
<path d="M11100 5426 l0 -186 32 0 31 0 -6 131 c-4 73 -5 130 -2 128 2 -3 22
-54 44 -114 21 -61 42 -118 46 -127 5 -12 18 -18 41 -18 l34 0 0 186 0 185
-27 -3 -28 -3 1 -122 c0 -68 -1 -122 -2 -120 -1 1 -23 56 -47 122 l-45 120
-36 3 -36 3 0 -185z"/>
<path d="M690 5375 l0 -225 35 0 35 0 1 173 1 172 19 -105 c10 -58 23 -135 30
-172 l11 -68 37 0 38 0 32 178 c18 97 35 179 37 181 2 2 4 -77 4 -177 l0 -182
35 0 35 0 0 225 0 225 -58 0 -58 0 -29 -150 c-16 -82 -31 -148 -33 -146 -3 3
-52 279 -52 293 0 2 -27 3 -60 3 l-60 0 0 -225z"/>
<path d="M1120 5375 l0 -225 40 0 40 0 0 89 0 88 58 6 c67 6 93 19 116 58 21
36 21 113 -1 150 -26 44 -69 59 -167 59 l-86 0 0 -225z m172 138 c22 -20 24
-76 2 -97 -9 -9 -32 -16 -55 -16 l-39 0 0 65 0 65 37 0 c20 0 45 -7 55 -17z"/>
<path d="M1487 5593 c-3 -5 -26 -99 -52 -208 -25 -110 -48 -208 -51 -218 -5
-16 0 -18 38 -15 l43 3 8 53 9 52 53 0 c58 0 58 1 71 -72 6 -37 7 -38 49 -38
l43 0 -14 63 c-8 34 -32 134 -53 222 l-38 160 -51 3 c-27 2 -53 -1 -55 -5z
m67 -153 c23 -108 22 -110 -20 -110 -33 0 -36 2 -30 23 3 12 11 55 18 94 6 40
13 71 14 70 2 -1 10 -36 18 -77z"/>
<path d="M1740 5375 l0 -225 40 0 40 0 0 95 0 95 33 0 c51 0 66 -23 69 -110
l3 -75 40 -3 40 -3 -3 83 c-3 62 -8 90 -23 110 -19 27 -19 27 6 64 28 42 31
79 10 130 -20 48 -63 64 -170 64 l-85 0 0 -225z m180 123 c13 -25 13 -31 0
-55 -13 -23 -24 -29 -58 -31 l-42 -3 0 61 0 61 42 -3 c34 -2 45 -8 58 -30z"/>
<path d="M2070 5375 l0 -225 40 0 40 0 0 225 0 225 -40 0 -40 0 0 -225z"/>
<path d="M2890 5375 l0 -225 41 0 41 0 -4 155 c-1 85 0 151 3 147 3 -4 30 -73
59 -154 l53 -148 44 0 43 0 0 225 0 225 -35 0 -35 0 0 -152 -1 -153 -57 153
-56 152 -48 0 -48 0 0 -225z"/>
<path d="M3362 5563 l3 -38 150 3 c82 1 146 0 143 -3 -3 -3 -70 -32 -149 -63
l-144 -58 -3 -52 -3 -52 225 0 226 0 0 40 0 39 -157 3 -156 3 156 60 157 60 0
48 0 47 -226 0 -225 0 3 -37z"/>
<path d="M4720 5075 l0 -525 95 0 95 0 0 235 0 235 125 0 125 0 0 -235 0 -235
95 0 95 0 0 525 0 525 -95 0 -95 0 0 -210 0 -211 -122 3 -123 3 -3 208 -2 207
-95 0 -95 0 0 -525z"/>
<path d="M6330 5076 l0 -526 90 0 90 0 0 215 0 215 93 0 c163 0 253 44 304
148 25 52 28 67 28 162 -1 94 -3 110 -27 155 -33 63 -69 98 -133 127 -46 21
-67 23 -247 26 l-198 4 0 -526z m364 349 c38 -25 56 -71 56 -141 0 -114 -43
-154 -164 -154 l-76 0 0 161 0 162 78 -5 c53 -3 86 -10 106 -23z"/>
<path d="M7060 5076 l0 -526 95 0 95 0 0 215 0 215 93 0 c120 0 186 19 242 71
70 64 89 116 90 234 0 90 -3 106 -28 157 -31 64 -70 101 -137 132 -40 18 -68
21 -247 24 l-203 4 0 -526z m350 358 c58 -23 83 -76 78 -161 -7 -107 -48 -143
-165 -143 l-73 0 0 160 0 160 60 0 c33 0 78 -7 100 -16z"/>
<path d="M7800 5075 l0 -525 95 0 95 0 0 525 0 525 -95 0 -95 0 0 -525z"/>
<path d="M8170 5075 l0 -525 85 0 86 0 -3 379 c-2 209 0 377 5 374 4 -2 7 -8
7 -14 0 -5 59 -173 132 -374 l131 -365 104 0 103 0 0 525 0 525 -85 0 -86 0 3
-360 c2 -197 0 -356 -3 -352 -4 4 -14 30 -23 57 -9 28 -67 186 -128 353 l-113
302 -107 0 -108 0 0 -525z"/>
<path d="M3749 5241 c0 -3 -1 -42 -2 -86 l-2 -80 -67 -3 -68 -3 0 81 0 80 -35
0 -35 0 0 -80 0 -80 -55 0 -55 0 0 85 0 85 -35 0 -36 0 3 -127 3 -128 223 -3
222 -2 0 129 0 129 -30 4 c-16 3 -30 2 -31 -1z"/>
<path d="M9820 5025 c0 -3 0 -114 -1 -247 l0 -243 53 -3 c173 -11 238 58 238
252 0 100 -13 147 -51 191 -22 24 -43 36 -80 44 -51 11 -159 15 -159 6z m181
-71 c35 -31 49 -77 49 -166 0 -105 -13 -150 -51 -182 -24 -20 -42 -26 -80 -26
l-49 0 0 201 0 201 55 -4 c35 -3 63 -12 76 -24z"/>
<path d="M10200 4781 l0 -251 30 0 30 0 -2 248 -3 247 -27 3 -28 3 0 -250z"/>
<path d="M10408 5014 c-36 -19 -58 -63 -58 -113 0 -54 35 -93 121 -136 38 -19
73 -44 79 -54 17 -33 12 -99 -10 -121 -41 -41 -129 -13 -144 45 -5 20 -13 25
-36 25 -28 0 -30 -2 -24 -27 4 -16 10 -35 14 -43 39 -77 181 -89 243 -20 23
26 27 39 27 89 0 76 -25 108 -121 156 -73 37 -89 56 -89 104 0 77 113 94 139
20 7 -22 16 -29 35 -29 39 0 35 43 -8 86 -30 30 -40 34 -87 34 -30 -1 -66 -7
-81 -16z"/>
<path d="M10767 5012 c-15 -9 -40 -42 -55 -72 -24 -49 -27 -66 -27 -165 0
-181 41 -249 151 -249 76 0 126 39 140 112 6 31 5 32 -25 32 -20 0 -31 -5 -31
-15 0 -56 -58 -96 -109 -75 -46 18 -63 74 -63 200 0 150 24 200 93 200 29 0
42 -6 58 -26 12 -15 21 -35 21 -45 0 -14 7 -19 30 -19 34 0 37 13 16 64 -21
52 -60 76 -120 76 -30 0 -62 -7 -79 -18z"/>
<path d="M11128 5015 c-61 -34 -96 -155 -83 -290 12 -133 65 -201 156 -199 62
1 96 24 129 89 21 44 24 63 25 160 0 122 -16 184 -60 225 -32 30 -126 38 -167
15z m120 -48 c36 -29 46 -71 46 -187 0 -97 -4 -121 -22 -156 -33 -64 -84 -74
-126 -24 -32 39 -41 83 -40 196 1 68 6 101 20 130 29 59 79 76 122 41z"/>
<path d="M11444 5016 c-3 -8 -4 -104 -2 -213 3 -216 8 -233 65 -264 40 -22
137 -18 170 7 53 39 58 61 58 279 l0 200 -27 3 -27 3 -3 -206 -3 -207 -28 -24
c-36 -31 -78 -31 -114 0 l-28 24 -3 206 -3 206 -25 0 c-13 0 -27 -6 -30 -14z"/>
<path d="M11840 4780 l0 -250 25 0 25 0 0 208 0 207 88 -205 87 -205 38 -3 37
-3 -2 248 -3 248 -25 0 -25 0 0 -197 c0 -108 -3 -194 -6 -190 -3 4 -43 94 -89
200 l-83 192 -33 0 -34 0 0 -250z"/>
<path d="M12190 5005 c0 -24 2 -25 60 -25 l60 0 0 -225 0 -225 30 0 30 0 0
225 0 225 61 0 c57 0 60 1 57 23 -3 22 -6 22 -150 25 l-148 3 0 -26z"/>
<path d="M12591 5017 c-41 -21 -66 -64 -65 -112 1 -61 21 -86 103 -129 38 -20
79 -48 90 -63 47 -59 10 -143 -64 -143 -41 0 -85 36 -85 70 0 16 -6 20 -30 20
-35 0 -40 -22 -15 -70 21 -40 69 -64 130 -64 63 0 108 24 129 68 40 85 10 154
-90 208 -106 57 -135 103 -99 155 34 48 117 34 131 -22 5 -19 13 -25 35 -25
20 0 29 5 29 15 0 29 -30 75 -60 90 -35 18 -106 19 -139 2z"/>
<path d="M1845 4961 c-31 -14 -65 -54 -75 -92 -6 -19 -10 -77 -10 -129 1 -150
41 -213 135 -213 54 0 86 20 111 70 15 31 19 60 19 153 0 121 -9 153 -54 194
-23 21 -95 31 -126 17z m89 -47 c33 -33 40 -60 40 -164 0 -88 -3 -111 -20
-140 -17 -30 -25 -35 -58 -35 -61 0 -79 32 -84 151 -6 136 22 203 85 204 12 0
29 -7 37 -16z"/>
<path d="M2110 4745 l0 -215 25 0 c25 0 25 0 25 100 l0 99 73 3 c66 3 72 5 75
26 3 21 0 22 -72 22 l-76 0 0 70 0 70 80 0 c73 0 80 2 80 20 0 19 -7 20 -105
20 l-105 0 0 -215z"/>
<path d="M2380 4745 l0 -215 25 0 25 0 0 100 0 100 75 0 c73 0 75 1 75 25 0
24 -2 25 -75 25 l-75 0 0 70 0 70 80 0 c73 0 80 2 80 20 0 19 -7 20 -105 20
l-105 0 0 -215z"/>
<path d="M2650 4745 l0 -215 110 0 c103 0 110 1 110 20 0 18 -7 20 -85 20
l-85 0 0 85 0 85 80 0 c73 0 80 2 80 20 0 18 -7 20 -80 20 l-80 0 0 70 0 69
82 3 c70 3 83 6 86 21 3 15 -7 17 -107 17 l-111 0 0 -215z"/>
<path d="M2930 4745 l0 -215 25 0 25 0 0 100 0 100 48 0 c70 0 84 -19 90 -120
4 -76 6 -80 28 -80 23 0 24 3 24 69 0 75 -12 119 -36 138 -13 9 -12 14 10 37
21 20 26 35 26 76 0 44 -5 56 -29 81 -28 28 -33 29 -120 29 l-91 0 0 -215z
m174 153 c17 -23 21 -75 8 -94 -13 -20 -50 -34 -91 -34 l-41 0 0 75 0 75 54 0
c45 0 58 -4 70 -22z"/>
<path d="M3360 4836 l0 -64 73 -16 c39 -9 110 -24 157 -34 l85 -18 -95 -18
c-52 -9 -123 -22 -157 -28 l-63 -11 0 -69 0 -68 225 0 225 0 0 40 0 40 -182 2
-183 3 135 24 c246 42 230 37 230 81 0 46 16 39 -195 80 -88 17 -164 32 -170
35 -5 2 74 1 178 -2 l187 -6 0 47 0 46 -225 0 -225 0 0 -64z"/>
<path d="M7641 4299 c-53 -27 -94 -82 -118 -157 -22 -73 -25 -330 -5 -409 29
-113 104 -173 217 -173 75 0 133 26 170 74 28 37 59 131 49 147 -3 5 -32 9
-64 9 l-59 0 -11 -41 c-13 -49 -42 -79 -74 -79 -40 0 -56 11 -78 54 -18 34
-22 63 -26 181 -5 162 7 240 43 279 48 51 117 26 136 -50 l12 -45 61 3 61 3
-3 40 c-5 61 -39 123 -85 153 -57 38 -163 43 -226 11z"/>
<path d="M8595 4301 c-74 -34 -114 -101 -136 -225 -15 -88 -7 -261 16 -343 20
-72 70 -136 122 -158 43 -18 121 -19 175 -3 55 16 113 83 135 155 26 83 26
343 0 426 -20 66 -75 133 -124 154 -46 19 -140 16 -188 -6z m136 -101 c49 -27
72 -164 58 -349 -10 -134 -36 -181 -101 -181 -67 0 -98 87 -98 275 0 147 16
224 53 250 25 17 60 19 88 5z"/>
<path d="M11040 4304 c-71 -31 -115 -91 -141 -194 -20 -79 -18 -309 4 -381 32
-108 85 -160 170 -167 66 -5 120 11 146 44 l20 25 3 -28 c3 -26 6 -28 56 -31
l52 -3 -2 208 -3 208 -112 3 -113 3 0 -61 0 -60 51 0 51 0 -7 -67 c-11 -102
-32 -133 -90 -133 -39 0 -55 11 -78 54 -20 37 -22 55 -22 201 0 174 14 239 58
270 49 34 127 -2 127 -60 0 -24 2 -25 69 -25 l68 0 -8 47 c-20 104 -94 163
-205 163 -32 -1 -75 -8 -94 -16z"/>
<path d="M2110 4299 c-42 -17 -89 -70 -107 -123 -14 -39 -18 -82 -18 -186 0
-125 2 -139 27 -192 33 -72 78 -98 168 -98 67 0 90 9 133 48 21 20 57 101 57
129 0 2 -25 3 -56 1 -55 -3 -57 -4 -68 -38 -20 -63 -79 -71 -121 -16 -18 25
-20 42 -20 181 0 141 2 156 21 182 17 22 29 28 60 28 39 0 52 -13 68 -67 4
-14 17 -18 60 -18 l56 0 -7 33 c-12 63 -42 107 -86 128 -45 20 -126 24 -167 8z"/>
<path d="M3545 4296 c-93 -40 -139 -195 -115 -380 12 -94 40 -157 83 -188 41
-29 146 -37 199 -15 84 35 123 144 116 323 -4 98 -8 118 -34 170 -37 75 -83
104 -164 103 -30 0 -69 -6 -85 -13z m137 -107 c40 -53 46 -262 11 -352 -25
-61 -93 -65 -127 -7 -18 30 -21 52 -21 165 0 143 6 176 36 206 28 28 76 22
101 -12z"/>
<path d="M4410 4299 c-96 -39 -145 -190 -122 -375 14 -101 41 -165 85 -196 27
-19 45 -23 114 -23 67 0 86 4 110 21 60 45 93 143 93 279 0 204 -67 305 -200
304 -30 0 -66 -5 -80 -10z m133 -111 c24 -33 35 -138 26 -258 -7 -102 -28
-135 -85 -135 -60 0 -77 39 -82 184 -5 126 7 190 39 222 28 28 76 22 102 -13z"/>
<path d="M4890 4288 c-77 -40 -106 -102 -117 -249 -10 -153 25 -280 90 -319
56 -35 183 -20 200 22 4 8 8 4 12 -9 6 -19 15 -23 46 -23 l39 0 0 165 0 165
-95 0 -95 0 0 -45 0 -45 40 0 40 0 0 -50 c0 -27 -5 -61 -12 -75 -21 -46 -88
-47 -122 -2 -19 26 -21 42 -21 175 0 122 3 153 18 179 32 59 114 56 132 -5 9
-31 11 -32 63 -32 l55 0 -6 37 c-13 78 -71 126 -160 131 -50 3 -71 -1 -107
-20z"/>
<path d="M8040 3940 l0 -370 185 0 c140 0 187 3 189 13 3 6 7 31 9 54 l5 42
-126 3 -127 3 -3 313 -2 312 -65 0 -65 0 0 -370z"/>
<path d="M8960 4255 l0 -55 80 0 80 0 0 -315 0 -315 65 0 65 0 2 313 3 312 78
3 77 3 0 54 0 55 -225 0 -225 0 0 -55z"/>
<path d="M9490 3940 l0 -370 65 0 65 0 0 165 0 165 90 0 90 0 0 -165 0 -165
65 0 65 0 0 370 0 370 -65 0 -65 0 0 -145 0 -145 -90 0 -90 0 0 145 0 145 -65
0 -65 0 0 -370z"/>
<path d="M10060 3940 l0 -370 65 0 65 0 0 370 0 370 -65 0 -65 0 0 -370z"/>
<path d="M10320 3940 l0 -370 60 0 60 0 0 268 1 267 65 -180 c36 -99 79 -219
96 -267 l31 -88 73 0 74 0 0 370 0 370 -60 0 -60 0 -1 -247 0 -248 -20 50
c-10 28 -52 138 -92 245 l-72 195 -78 3 -77 3 0 -371z"/>
<path d="M1130 4255 l0 -45 65 0 65 0 0 -250 0 -250 60 0 60 0 0 250 0 250 65
0 65 0 0 45 0 45 -190 0 -190 0 0 -45z"/>
<path d="M1580 4005 l0 -295 165 0 165 0 0 29 c0 16 3 36 6 45 5 14 -8 16
-110 16 l-116 0 0 85 0 85 100 0 100 0 0 45 0 44 -97 3 -98 3 -3 73 -3 72 106
0 105 0 0 45 0 45 -160 0 -160 0 0 -295z"/>
<path d="M2450 4005 l0 -295 55 0 55 0 0 130 0 130 75 0 75 0 0 -130 0 -130
55 0 55 0 0 295 0 295 -55 0 -55 0 0 -115 0 -115 -75 0 -75 0 0 115 0 115 -55
0 -55 0 0 -295z"/>
<path d="M2940 4005 l0 -295 50 0 50 0 0 213 1 212 81 -212 81 -213 63 0 64 0
0 295 0 295 -50 0 -50 0 -1 -202 c0 -128 -4 -196 -9 -183 -5 11 -41 102 -80
203 l-71 182 -65 0 -64 0 0 -295z"/>
<path d="M3930 4005 l0 -295 160 0 160 0 0 45 0 45 -105 0 -105 0 0 250 0 250
-55 0 -55 0 0 -295z"/>
<path d="M5209 4278 c5 -13 41 -97 80 -188 l71 -164 0 -108 0 -108 55 0 55 0
0 106 0 106 80 184 c44 102 80 187 80 189 0 3 -26 5 -57 5 l-58 0 -42 -119
c-24 -66 -43 -124 -43 -130 0 -6 -4 -11 -10 -11 -5 0 -10 5 -10 11 0 6 -19 65
-42 130 l-43 119 -62 0 c-61 0 -62 -1 -54 -22z"/>
<path d="M5873 4275 c-39 -17 -63 -52 -70 -103 -11 -81 33 -144 120 -172 48
-15 220 -15 277 0 89 24 130 104 93 179 -16 32 -17 41 -7 45 8 3 14 19 14 36
l0 30 -140 0 -140 0 0 -75 0 -75 40 0 c39 0 40 1 40 35 0 36 0 36 38 30 72
-12 81 -15 87 -36 12 -36 -3 -66 -36 -78 -39 -14 -228 -15 -263 -1 -14 5 -32
21 -42 35 -15 23 -15 27 0 50 9 14 25 25 36 25 17 0 20 7 20 45 0 50 -10 55
-67 30z"/>
<path d="M6530 4220 l0 -70 155 0 156 0 -3 -92 -3 -93 -153 0 -152 0 0 -67 0
-68 390 0 391 0 -3 66 -3 66 -172 -1 -173 -2 0 96 0 95 175 0 175 0 0 70 0 70
-390 0 -390 0 0 -70z"/>
<path d="M11736 4269 c-15 -11 -36 -40 -47 -62 -29 -57 -48 -77 -74 -77 -50 0
-59 56 -12 78 20 10 27 20 27 43 0 25 -4 29 -26 29 -15 0 -38 -12 -55 -29 -25
-25 -29 -37 -29 -81 0 -44 4 -56 29 -81 23 -23 38 -29 71 -29 56 0 75 12 106
68 55 95 97 117 130 67 15 -23 15 -27 0 -50 -9 -14 -23 -25 -31 -25 -10 0 -15
-11 -15 -35 0 -25 4 -35 15 -35 29 0 71 28 83 55 27 59 4 152 -44 174 -40 18
-98 13 -128 -10z"/>
<path d="M11524 4017 c-2 -7 -3 -62 -2 -123 l3 -109 27 -3 c25 -3 27 0 30 40
l3 43 163 3 162 2 0 35 0 35 -162 2 -163 3 -3 43 c-3 37 -6 42 -28 42 -13 0
-27 -6 -30 -13z"/>
<path d="M5810 3880 l0 -40 162 -2 162 -3 -162 -60 -162 -59 0 -53 0 -53 243
2 242 3 3 38 3 37 -178 1 -178 0 135 50 c74 27 154 56 178 65 43 16 43 16 40
63 l-3 46 -242 3 -243 2 0 -40z"/>
<path d="M11527 3743 c-4 -3 -7 -19 -7 -35 l0 -28 128 -1 c143 -1 145 4 -30
-64 l-98 -37 0 -39 0 -39 195 0 195 0 0 30 0 29 -137 3 -138 3 138 50 137 50
0 42 0 43 -188 0 c-104 0 -192 -3 -195 -7z"/>
<path d="M6693 3729 c-77 -15 -123 -49 -158 -118 -27 -54 -18 -175 17 -229 59
-88 173 -126 379 -125 280 2 389 70 389 243 -1 114 -58 194 -159 220 -25 7
-54 14 -63 17 -16 4 -18 -4 -18 -65 l0 -70 43 -10 c107 -27 112 -129 10 -169
-40 -15 -77 -18 -213 -18 -136 0 -173 3 -213 18 -105 41 -96 154 15 172 l39 7
-3 66 c-2 36 -7 66 -13 68 -5 1 -29 -2 -52 -7z"/>
<path d="M4024 3531 c-63 -29 -88 -87 -92 -222 -7 -188 35 -269 139 -269 39 0
55 5 74 24 24 24 24 24 27 2 2 -13 10 -21 23 -21 19 0 20 7 20 135 l0 135 -70
0 c-65 0 -70 -2 -73 -22 -3 -21 1 -23 44 -23 l47 0 -5 -71 c-6 -82 -27 -112
-77 -112 -39 0 -68 26 -81 72 -14 49 -13 215 2 263 13 45 49 78 85 78 29 0 73
-42 73 -70 0 -16 6 -20 30 -20 35 0 36 5 14 59 -28 71 -105 97 -180 62z"/>
<path d="M5090 3539 c-62 -26 -93 -87 -104 -204 -7 -74 6 -181 28 -227 21 -43
63 -68 116 -68 59 0 98 24 121 73 26 58 24 67 -11 67 -23 0 -30 -5 -30 -19 0
-35 -38 -71 -75 -71 -42 0 -72 29 -82 79 -15 69 -8 233 11 273 35 74 118 73
142 -2 12 -36 38 -50 57 -31 15 15 -18 96 -48 115 -31 21 -94 28 -125 15z"/>
<path d="M3681 3503 c-32 -122 -111 -444 -111 -453 0 -6 12 -10 27 -8 23 2 29
9 35 43 5 22 13 57 19 78 l10 38 67 -3 66 -3 19 -77 c17 -68 22 -78 41 -78 13
0 25 3 28 6 3 3 -22 114 -56 247 l-62 242 -36 3 c-35 3 -37 1 -47 -35z m92
-221 l7 -32 -56 0 c-41 0 -55 3 -52 13 3 6 16 59 29 116 l23 105 21 -85 c12
-46 25 -99 28 -117z"/>
<path d="M4312 3293 l3 -248 115 0 c112 0 115 1 118 23 3 21 1 22 -87 22 l-91
0 0 95 0 94 83 3 c76 3 82 5 85 26 3 21 1 22 -82 22 l-86 0 0 80 0 80 85 0
c84 0 85 0 85 25 l0 25 -115 0 -115 0 2 -247z"/>
<path d="M4620 3289 l0 -250 23 3 c22 3 22 4 25 208 l3 205 82 -205 c82 -203
84 -205 115 -208 l32 -3 0 250 0 251 -25 0 -25 0 0 -197 -1 -198 -81 198 -82
197 -33 0 -33 0 0 -251z"/>
<path d="M5303 3528 c2 -7 31 -71 63 -143 57 -126 59 -133 64 -235 5 -104 5
-105 30 -105 25 0 25 1 30 110 5 109 6 112 67 245 l61 135 -25 3 c-14 2 -29 0
-33 -5 -4 -4 -27 -56 -51 -115 -23 -60 -46 -108 -49 -108 -3 0 -26 51 -52 113
-44 108 -46 112 -78 115 -24 3 -31 0 -27 -10z"/>
<path d="M5810 3485 l0 -45 245 0 245 0 0 45 0 45 -245 0 -245 0 0 -45z"/>
<path d="M11850 3380 l0 -70 -55 0 -55 0 0 65 0 65 -30 0 -30 0 0 -65 0 -65
-50 0 -50 0 0 65 0 65 -30 0 -30 0 0 -100 0 -100 195 0 195 0 0 105 0 105 -30
0 -30 0 0 -70z"/>
<path d="M5885 3370 c-11 -4 -31 -20 -45 -35 -23 -24 -25 -36 -28 -136 l-4
-109 244 2 243 3 3 43 3 42 -100 0 -101 0 -1 43 c-1 102 -51 158 -143 156 -28
0 -60 -4 -71 -9z m129 -102 c9 -12 16 -37 16 -55 l0 -33 -75 0 -75 0 0 37 c0
51 23 73 76 73 33 0 46 -5 58 -22z"/>
<path d="M7520 3220 l0 -160 40 0 40 0 0 55 0 55 225 0 225 0 0 50 0 50 -225
0 -225 0 0 55 0 55 -40 0 -40 0 0 -160z"/>
<path d="M8287 3363 c-4 -3 -7 -120 -7 -260 l0 -253 30 0 30 0 0 120 0 120 85
0 c84 0 85 0 85 25 0 25 -1 25 -85 25 l-85 0 0 90 0 90 90 0 c89 0 90 0 90 25
l0 25 -113 0 c-63 0 -117 -3 -120 -7z"/>
<path d="M8645 3358 c-2 -7 -29 -116 -60 -243 -30 -126 -58 -238 -61 -247 -4
-14 1 -18 24 -18 30 0 31 2 48 80 l17 81 71 -3 70 -3 9 -40 c25 -114 26 -115
58 -115 24 0 29 4 25 18 -3 9 -28 109 -56 222 -28 113 -55 222 -61 243 -9 34
-13 37 -45 37 -19 0 -37 -6 -39 -12z m88 -290 c-6 -12 -103 -10 -103 2 0 8 30
143 46 210 5 19 13 -4 34 -90 15 -63 25 -118 23 -122z"/>
<path d="M8968 3354 c-57 -30 -75 -120 -38 -181 11 -19 42 -45 72 -60 29 -16
67 -42 85 -59 85 -82 -8 -216 -100 -144 -14 11 -28 34 -32 50 -5 23 -12 30
-29 30 -32 0 -35 -6 -24 -51 19 -73 96 -111 179 -89 54 15 86 51 95 105 12 83
-26 145 -119 191 -68 35 -87 57 -87 102 0 47 27 75 72 75 34 0 68 -32 68 -64
0 -14 7 -19 30 -19 34 0 37 13 16 65 -8 19 -28 41 -45 49 -38 20 -107 20 -143
0z"/>
<path d="M9257 3363 c-4 -3 -7 -120 -7 -260 l0 -253 30 0 30 0 0 125 0 125 85
0 85 0 0 -125 0 -125 30 0 30 0 -2 258 -3 257 -27 3 -28 3 0 -110 0 -111 -85
0 -85 0 0 110 c0 109 0 110 -23 110 -13 0 -27 -3 -30 -7z"/>
<path d="M9640 3111 l0 -261 30 0 30 0 -2 258 -3 257 -27 3 -28 3 0 -260z"/>
<path d="M9859 3347 c-61 -41 -94 -195 -71 -334 21 -124 59 -167 149 -167 44
0 57 4 83 29 49 47 65 104 65 235 0 132 -17 193 -66 235 -41 34 -112 35 -160
2z m130 -48 c11 -12 25 -47 32 -78 15 -71 7 -224 -14 -273 -31 -74 -103 -75
-141 -3 -18 34 -21 57 -21 165 0 126 6 150 43 193 21 24 76 22 101 -4z"/>
<path d="M10177 3364 c-4 -4 -7 -121 -7 -261 l0 -253 31 0 32 0 -5 217 c-3
120 -3 213 -1 208 2 -6 41 -102 86 -215 82 -205 82 -205 115 -208 l32 -3 0
260 0 261 -25 0 -25 0 0 -207 -1 -208 -82 205 c-80 199 -84 205 -113 208 -16
2 -33 0 -37 -4z"/>
<path d="M11121 3338 c-46 -16 -95 -67 -130 -137 -42 -82 -76 -119 -117 -127
-75 -14 -124 21 -124 89 0 49 23 77 75 94 24 8 31 16 33 41 3 30 1 32 -28 32
-84 0 -143 -65 -144 -159 -1 -106 62 -171 166 -171 95 0 127 25 196 148 58
104 89 126 168 120 67 -6 93 -28 101 -85 9 -67 -19 -103 -99 -133 -22 -7 -28
-16 -28 -40 0 -26 4 -30 28 -30 38 0 112 39 136 73 14 20 21 47 24 95 6 122
-55 192 -172 198 -28 2 -66 -2 -85 -8z"/>
<path d="M11520 3166 c0 -24 5 -36 18 -40 14 -4 197 -45 267 -59 27 -5 16 -9
-145 -43 l-135 -29 -3 -39 c-3 -33 -1 -38 15 -34 10 3 98 24 196 49 l178 44
-3 45 -3 45 -164 42 c-245 63 -221 61 -221 19z"/>
<path d="M6645 3151 c-95 -44 -115 -94 -115 -291 l0 -150 390 0 390 0 0 70 0
70 -165 0 -165 0 0 56 c0 30 4 64 10 74 15 28 65 40 165 40 51 0 107 3 124 6
31 6 31 7 31 73 l0 66 -112 -3 c-151 -4 -210 -16 -248 -52 l-32 -30 -31 34
c-53 56 -164 73 -242 37z m192 -155 c18 -22 23 -39 23 -87 l0 -59 -111 0 -111
0 4 66 c4 58 8 70 33 91 25 22 36 25 84 21 44 -4 59 -10 78 -32z"/>
<path d="M5905 3033 c-73 -20 -95 -64 -95 -188 l0 -95 245 0 245 0 0 45 0 45
-100 0 -100 0 0 43 c0 50 -25 103 -61 130 -27 19 -98 30 -134 20z m105 -103
c12 -12 20 -33 20 -55 l0 -35 -75 0 -75 0 0 39 c0 30 6 44 22 55 31 22 84 20
108 -4z"/>
<path d="M7590 3003 c-55 -28 -70 -70 -70 -195 l0 -108 265 0 265 0 0 50 0 50
-111 0 -110 0 3 47 c4 61 25 73 136 73 l82 0 0 48 0 48 -87 -3 c-111 -5 -129
-9 -154 -34 l-21 -21 -29 28 c-37 36 -117 44 -169 17z m140 -98 c7 -8 15 -35
18 -60 l5 -45 -77 0 -76 0 0 44 c0 27 6 51 16 60 20 21 97 21 114 1z"/>
<path d="M10690 2760 l0 -190 35 0 35 0 0 75 0 75 305 0 305 0 0 40 0 40 -305
0 -305 0 0 75 0 75 -35 0 -35 0 0 -190z"/>
<path d="M11855 2892 c-3 -3 -5 -36 -5 -74 l0 -68 -55 0 -55 0 0 65 0 65 -30
0 -30 0 0 -66 0 -65 -47 3 -48 3 -3 68 c-3 68 -3 68 -30 65 l-27 -3 -3 -102
-3 -103 196 0 195 0 0 104 c0 102 0 104 -25 108 -13 3 -27 3 -30 0z"/>
<path d="M4000 2781 l0 -92 -72 3 -73 3 -3 78 -3 77 -34 0 -35 0 0 -80 0 -80
-60 0 -60 0 0 85 0 85 -40 0 -40 0 0 -125 0 -125 245 0 245 0 0 125 c0 93 -3
125 -12 125 -7 0 -23 3 -35 6 -23 6 -23 5 -23 -85z"/>
<path d="M4622 2805 c-51 -23 -76 -88 -75 -200 1 -149 39 -209 133 -209 59 0
85 16 112 67 18 35 22 59 22 142 0 112 -15 162 -58 190 -35 23 -95 28 -134 10z
m89 -64 c20 -16 23 -29 27 -107 5 -117 -11 -168 -53 -172 -39 -4 -54 21 -62
102 -7 82 4 153 28 177 24 24 31 24 60 0z"/>
<path d="M4230 2605 l0 -205 40 0 40 0 0 96 0 95 48 -3 47 -3 3 -93 3 -93 37
3 37 3 3 203 2 202 -40 0 -40 0 0 -80 0 -80 -50 0 -50 0 0 80 0 80 -40 0 -40
0 0 -205z"/>
<path d="M4830 2780 c0 -29 2 -30 45 -30 l45 0 2 -172 3 -173 38 -3 37 -3 0
175 0 176 45 0 c43 0 45 1 45 30 l0 30 -130 0 -130 0 0 -30z"/>
<path d="M5130 2605 l0 -205 110 0 110 0 0 30 0 29 -72 3 -73 3 -3 58 -3 57
71 0 70 0 0 35 0 35 -71 0 -70 0 3 48 3 47 73 3 72 3 0 29 0 30 -110 0 -110 0
0 -205z"/>
<path d="M5400 2605 l0 -206 108 3 107 3 3 28 3 27 -70 0 -71 0 0 175 0 175
-40 0 -40 0 0 -205z"/>
<path d="M8270 2471 l0 -211 76 0 c48 0 88 6 109 16 37 17 65 65 65 111 0 32
-34 93 -52 93 -6 0 -1 12 13 26 34 37 32 105 -5 142 -24 25 -35 27 -116 30
l-90 4 0 -211z m141 139 c13 -7 19 -21 19 -45 0 -38 -20 -55 -64 -55 -25 0
-26 3 -26 55 0 52 1 55 26 55 14 0 34 -5 45 -10z m19 -179 c15 -29 12 -77 -6
-95 -8 -9 -31 -16 -50 -16 l-34 0 0 65 0 65 40 0 c29 0 42 -5 50 -19z"/>
<path d="M8570 2508 c0 -154 2 -177 20 -205 36 -60 147 -67 201 -13 33 32 42
98 37 270 l-3 115 -37 3 -38 3 0 -161 c0 -92 -4 -170 -10 -181 -15 -27 -64
-25 -84 3 -13 18 -16 54 -16 180 l0 158 -35 0 -35 0 0 -172z"/>
<path d="M8929 2665 c-34 -18 -53 -66 -46 -111 8 -46 27 -67 97 -108 77 -45
92 -96 37 -130 -22 -14 -47 1 -65 37 -11 22 -20 27 -49 27 -35 0 -35 -1 -29
-32 14 -71 93 -111 169 -86 54 17 80 55 80 113 0 56 -23 91 -85 125 -66 36
-78 49 -78 81 0 52 64 63 76 13 5 -20 12 -24 45 -24 38 0 39 1 33 28 -3 15
-19 39 -35 55 -24 22 -38 27 -77 27 -26 -1 -59 -7 -73 -15z"/>
<path d="M9180 2470 l0 -210 35 0 35 0 0 210 0 210 -35 0 -35 0 0 -210z"/>
<path d="M9330 2471 l0 -211 30 0 30 0 1 148 c1 167 -4 169 69 -30 l42 -118
39 0 39 0 0 211 0 210 -31 -3 -31 -3 1 -140 c1 -76 0 -137 -3 -134 -3 3 -27
65 -54 139 l-49 135 -42 3 -41 3 0 -210z"/>
<path d="M9654 2667 c-2 -7 -3 -100 -2 -207 l3 -195 106 -3 107 -3 5 28 c3 15
3 31 0 35 -2 5 -35 8 -74 8 l-69 0 0 60 0 60 65 0 65 0 0 30 0 30 -65 0 -65 0
0 50 0 50 70 0 70 0 0 35 0 35 -105 0 c-77 0 -107 -4 -111 -13z"/>
<path d="M9969 2665 c-34 -18 -53 -66 -46 -111 8 -46 27 -67 97 -108 77 -45
92 -96 37 -130 -22 -14 -47 1 -65 37 -11 22 -20 27 -49 27 -35 0 -35 -1 -29
-32 14 -71 93 -111 169 -86 54 17 80 55 80 113 0 56 -23 91 -85 125 -66 36
-78 49 -78 81 0 52 64 63 76 13 5 -20 12 -24 45 -24 38 0 39 1 33 28 -3 15
-19 39 -35 55 -24 22 -38 27 -77 27 -26 -1 -59 -7 -73 -15z"/>
<path d="M10250 2653 c-66 -59 -44 -149 50 -200 64 -35 80 -52 80 -84 0 -27
-22 -59 -41 -59 -22 0 -50 22 -59 46 -8 19 -17 24 -46 24 -34 0 -36 -1 -30
-27 23 -97 148 -133 218 -63 55 56 41 151 -29 195 -18 11 -47 29 -65 40 -41
25 -51 77 -19 95 27 14 61 -3 61 -30 0 -17 7 -20 40 -20 44 0 45 2 29 49 -23
65 -133 84 -189 34z"/>
<path d="M5810 2615 l0 -45 243 2 242 3 3 43 3 42 -245 0 -246 0 0 -45z"/>
<path d="M7785 2595 l-260 -60 -3 -62 c-2 -52 0 -62 15 -67 31 -9 494 -116
504 -116 5 0 9 20 9 45 0 48 4 45 -85 63 l-40 8 -3 58 c-4 68 0 72 71 81 54 8
60 15 55 72 l-3 39 -260 -61z m55 -125 c0 -48 -1 -48 -135 -21 -98 20 -97 23
15 44 121 23 120 23 120 -23z"/>
<path d="M7065 2584 c-126 -30 -299 -70 -382 -90 l-153 -36 0 -94 c0 -75 3
-94 14 -94 8 0 179 -38 380 -85 200 -47 370 -85 376 -85 7 0 10 23 8 68 l-3
67 -98 20 -98 19 3 91 3 90 98 20 97 19 0 73 c0 40 -3 73 -7 72 -5 0 -111 -25
-238 -55z m-75 -220 c0 -64 -1 -66 -22 -61 -13 3 -88 18 -168 34 l-145 27 155
32 c85 17 161 32 168 33 8 1 12 -18 12 -65z"/>
<path d="M3661 2527 c-60 -21 -76 -54 -79 -173 l-4 -104 246 0 246 0 0 40 0
39 -102 3 -103 3 1 39 c2 52 23 66 98 66 96 0 106 5 106 54 l0 41 -95 -5 c-75
-5 -100 -10 -123 -27 l-28 -21 -22 23 c-19 20 -64 36 -96 34 -6 0 -26 -5 -45
-12z m107 -93 c17 -12 22 -25 22 -60 l0 -44 -70 0 -70 0 0 40 c0 69 62 103
118 64z"/>
<path d="M10780 2498 c-70 -36 -90 -85 -90 -220 l0 -108 340 0 340 0 0 35 0
35 -155 0 -155 0 0 60 c0 70 13 104 47 119 13 6 78 14 144 18 l119 6 0 36 0
37 -97 -3 c-155 -5 -183 -11 -216 -44 l-29 -29 -27 29 c-50 53 -148 66 -221
29z m187 -91 c23 -23 26 -34 27 -94 l1 -68 -117 -3 -118 -3 0 73 c1 104 27
131 123 125 46 -3 63 -9 84 -30z"/>
<path d="M5810 2445 l0 -45 95 0 95 0 0 -60 0 -60 -95 0 -95 0 0 -40 0 -40
245 0 245 0 0 40 0 40 -110 0 -110 0 0 60 0 60 110 0 110 0 0 45 0 45 -245 0
-245 0 0 -45z"/>
<path d="M7583 2230 c-82 -50 -97 -161 -31 -235 42 -48 114 -68 243 -67 124 0
176 14 223 56 33 31 36 39 39 97 3 51 0 70 -16 96 -25 40 -59 62 -105 70 l-36
6 0 -44 c0 -42 2 -45 40 -61 34 -14 40 -21 40 -46 0 -16 -9 -37 -19 -46 -41
-37 -249 -44 -327 -11 -53 22 -57 81 -8 103 14 7 31 12 39 12 11 0 15 12 15
45 0 44 -1 45 -32 45 -18 0 -47 -9 -65 -20z"/>
<path d="M3945 2174 c-55 -13 -160 -38 -232 -55 l-133 -31 0 -57 0 -57 228
-53 c125 -29 235 -55 245 -57 14 -5 17 2 17 39 l0 44 -60 13 -60 13 0 57 0 57
60 12 60 12 0 45 c0 51 8 50 -125 18z m-75 -144 c0 -26 -4 -40 -12 -39 -42 2
-180 37 -168 42 12 5 125 28 173 36 4 0 7 -17 7 -39z"/>
<path d="M6080 2108 c-18 -13 -49 -52 -69 -88 -20 -36 -48 -71 -63 -79 -23
-13 -29 -13 -52 3 -38 25 -33 66 12 85 28 13 32 19 32 53 0 34 -3 38 -25 38
-89 0 -143 -112 -100 -204 21 -44 63 -66 123 -66 62 0 95 25 136 102 42 77 54
88 97 88 76 0 91 -87 19 -112 -27 -9 -30 -14 -30 -54 0 -43 1 -44 28 -38 80
19 116 66 116 149 0 95 -49 145 -142 145 -34 0 -59 -7 -82 -22z"/>
<path d="M10901 2050 c-86 -12 -170 -55 -196 -100 -25 -44 -26 -132 -2 -178
41 -76 148 -112 332 -112 242 0 345 59 345 197 0 90 -49 147 -152 178 -61 18
-244 26 -327 15z m330 -95 c57 -20 78 -42 85 -87 9 -50 -31 -93 -104 -115 -71
-21 -273 -24 -350 -4 -72 18 -112 57 -112 108 0 60 48 97 150 117 57 11 285
-2 331 -19z"/>
<path d="M7190 1901 l0 -141 -115 0 -115 0 0 125 0 125 -60 0 -60 0 0 -125 0
-125 -95 0 -95 0 0 130 0 130 -60 0 -60 0 0 -200 0 -200 390 0 390 0 0 199 c0
110 -3 202 -7 204 -5 3 -32 8 -60 12 l-53 7 0 -141z"/>
<path d="M3580 1735 l0 -125 245 0 245 0 0 45 0 45 -105 0 -105 0 0 75 0 75
-40 0 -40 0 0 -75 0 -75 -60 0 -60 0 0 80 0 80 -40 0 -40 0 0 -125z"/>
<path d="M6220 1580 l0 -90 -70 0 -70 0 0 80 0 80 -40 0 -40 0 0 -80 0 -81
-57 3 -58 3 -3 83 -3 82 -34 0 -35 0 0 -125 0 -125 245 0 245 0 0 124 0 124
-31 6 c-17 3 -35 6 -40 6 -5 0 -9 -40 -9 -90z"/>
<path d="M10786 1560 c-73 -37 -94 -88 -95 -227 l-1 -103 340 0 340 0 0 35 0
35 -145 0 -145 0 0 58 c0 77 -15 126 -51 167 -50 57 -168 74 -243 35z m177
-72 c32 -17 48 -55 50 -120 l2 -63 -127 -3 -128 -3 0 70 c0 58 4 74 23 96 35
41 123 52 180 23z"/>
<path d="M3655 1530 c-11 -4 -31 -20 -45 -35 -23 -24 -25 -36 -28 -136 l-4
-109 246 0 246 0 0 45 0 45 -106 0 -107 0 6 37 c10 58 26 68 122 72 l85 3 0
45 c0 42 -2 45 -22 39 -13 -3 -55 -6 -95 -6 -62 0 -75 -3 -102 -26 -17 -14
-31 -21 -31 -15 0 36 -112 63 -165 41z m117 -97 c11 -10 18 -30 18 -55 l0 -38
-70 0 -70 0 0 33 c0 49 24 77 67 77 20 0 45 -7 55 -17z"/>
<path d="M7042 1519 c-87 -17 -132 -60 -196 -188 -50 -99 -74 -121 -128 -121
-24 0 -54 7 -66 16 -19 13 -23 23 -20 62 3 43 6 49 38 64 19 9 43 19 53 22 14
4 17 17 17 72 l0 67 -42 -7 c-61 -10 -107 -35 -142 -79 -26 -33 -30 -46 -34
-121 -4 -73 -1 -91 18 -131 33 -68 85 -99 175 -103 119 -6 168 30 245 177 54
104 76 123 144 129 48 4 57 1 80 -21 19 -19 26 -37 26 -65 0 -49 -23 -79 -75
-96 l-40 -14 -3 -66 -3 -66 34 0 c18 0 58 12 88 28 45 22 59 36 82 81 22 44
27 68 27 125 0 129 -59 210 -170 235 -51 12 -50 12 -108 0z"/>
<path d="M6220 1265 l0 -85 -70 0 -70 0 0 75 0 75 -40 0 -40 0 0 -75 0 -75
-60 0 -60 0 0 80 0 80 -35 0 -35 0 0 -125 0 -125 245 0 245 0 0 124 c0 133 -1
136 -56 136 -23 0 -24 -2 -24 -85z"/>
<path d="M3580 1115 l0 -45 245 0 245 0 0 45 0 45 -245 0 -245 0 0 -45z"/>
<path d="M11128 1119 c-49 -14 -102 -67 -138 -138 -41 -82 -75 -119 -116 -127
-75 -14 -124 21 -124 89 0 51 27 83 78 93 28 6 32 10 32 40 0 31 -3 34 -30 34
-43 0 -102 -33 -121 -67 -51 -89 -22 -205 63 -249 35 -18 131 -18 167 1 38 19
76 65 111 134 32 65 73 109 107 117 41 11 114 -2 135 -24 12 -11 22 -38 25
-63 6 -60 -21 -102 -79 -121 -38 -13 -43 -18 -46 -48 l-3 -33 46 6 c89 10 138
66 143 165 6 120 -50 187 -164 197 -27 2 -66 -1 -86 -6z"/>
<path d="M3818 972 l-238 -55 0 -58 c0 -53 2 -59 23 -64 142 -33 458 -105 462
-105 3 0 5 20 5 44 l0 44 -42 7 c-81 12 -79 11 -76 73 l3 57 55 10 55 11 3 47
c2 26 -1 47 -5 46 -4 -1 -115 -26 -245 -57z m49 -149 c-3 -2 -49 4 -104 15
-94 18 -96 19 -58 27 22 4 67 13 100 19 l60 12 3 -34 c2 -19 1 -36 -1 -39z"/>
<path d="M5873 1010 c-46 -19 -63 -66 -63 -178 l0 -102 243 2 242 3 3 43 3 42
-105 0 -106 0 0 39 c0 54 18 65 119 71 l86 5 3 44 3 44 -96 -5 c-74 -4 -103
-10 -123 -25 -27 -19 -27 -19 -61 4 -36 24 -105 30 -148 13z m130 -102 c9 -11
17 -35 17 -54 l0 -34 -70 0 -70 0 0 38 c0 39 14 66 40 75 25 9 64 -2 83 -25z"/>
<path d="M7190 850 l0 -140 -115 0 -115 0 0 125 0 125 -60 0 -60 0 0 -125 0
-125 -95 0 -95 0 0 130 0 130 -60 0 -60 0 0 -200 0 -200 390 0 390 0 0 200 0
199 -37 6 c-21 3 -48 8 -60 11 -23 4 -23 4 -23 -136z"/>
<path d="M5810 555 l0 -125 245 0 245 0 0 40 0 40 -105 0 -105 0 0 80 0 80
-40 0 -40 0 0 -80 0 -81 -62 3 -63 3 -3 83 -3 82 -34 0 -35 0 0 -125z"/>
<path d="M6653 449 c-45 -13 -96 -67 -111 -116 -7 -24 -12 -101 -12 -187 l0
-146 390 0 390 0 0 70 0 70 -165 0 -165 0 0 54 c0 30 3 62 6 71 12 30 60 45
147 45 46 0 105 3 131 6 l46 7 0 68 0 67 -72 -4 c-40 -2 -107 -6 -149 -8 -82
-5 -128 -22 -153 -58 l-15 -22 -22 28 c-45 57 -155 81 -246 55z m178 -158 c26
-26 29 -36 29 -90 l0 -61 -110 0 -110 0 0 61 c0 54 3 64 29 90 43 42 119 42
162 0z"/>
</g>
</svg>
