<?xml version="1.0" standalone="no"?>
<!DOCTYPE svg PUBLIC "-//W3C//DTD SVG 20010904//EN"
 "http://www.w3.org/TR/2001/REC-SVG-20010904/DTD/svg10.dtd">
<svg version="1.0" xmlns="http://www.w3.org/2000/svg"
 width="1280.000000pt" height="1029.000000pt" viewBox="0 0 1280.000000 1029.000000"
 preserveAspectRatio="xMidYMid meet">
<metadata>
Created by potrace 1.15, written by Peter Selinger 2001-2017
</metadata>
<g transform="translate(0.000000,1029.000000) scale(0.100000,-0.100000)"
fill="#000000" stroke="none">
<path d="M1065 10280 c-592 -93 -1032 -636 -1062 -1314 -20 -466 156 -934 501
-1328 l76 -87 -22 -78 c-20 -67 -23 -101 -23 -243 0 -160 1 -168 33 -260 18
-52 51 -127 73 -167 91 -165 276 -364 481 -517 l102 -77 49 -162 c44 -146 406
-1233 682 -2048 l107 -316 -35 -45 c-76 -101 -88 -275 -28 -403 58 -124 134
-177 576 -400 897 -452 1876 -736 2900 -839 342 -35 478 -41 895 -40 425 1
625 11 970 49 1314 148 2593 579 3772 1272 134 78 182 122 248 224 54 84 74
149 74 239 -1 85 -21 140 -80 221 l-35 49 41 177 c23 98 115 486 205 863 90
377 182 764 205 860 55 235 59 250 71 250 24 0 196 93 259 140 294 218 447
617 410 1064 -6 72 -13 138 -16 147 -2 9 16 69 41 133 84 219 148 472 177 706
19 155 16 499 -5 640 -82 531 -315 915 -660 1085 -521 257 -1207 -25 -1897
-780 -70 -77 -138 -153 -152 -169 l-25 -29 -269 66 c-148 36 -330 79 -404 96
-1811 399 -3678 476 -5338 220 -338 -52 -769 -139 -1062 -214 -52 -13 -95 -23
-96 -22 -22 38 -185 242 -260 327 -235 266 -473 455 -724 574 -136 64 -206 89
-326 116 -103 24 -335 34 -429 20z m141 -621 c279 -39 564 -257 815 -626 38
-56 66 -104 62 -106 -5 -3 -64 -28 -133 -57 -444 -184 -724 -375 -888 -606
l-62 -87 -71 74 c-269 281 -397 611 -349 906 45 279 240 481 490 506 19 2 40
5 47 5 6 1 46 -3 89 -9z m10539 -64 c262 -67 427 -303 429 -610 0 -200 -61
-392 -187 -580 -72 -108 -220 -276 -242 -274 -5 0 -37 39 -70 86 -150 216
-352 391 -590 510 -87 44 -311 124 -387 138 -21 4 -38 9 -38 11 0 3 26 44 59
92 318 473 704 709 1026 627z"/>
</g>
</svg>
