<?xml version="1.0" standalone="no"?>
<!DOCTYPE svg PUBLIC "-//W3C//DTD SVG 20010904//EN"
 "http://www.w3.org/TR/2001/REC-SVG-20010904/DTD/svg10.dtd">
<svg version="1.0" xmlns="http://www.w3.org/2000/svg"
 width="658.000000pt" height="1280.000000pt" viewBox="0 0 658.000000 1280.000000"
 preserveAspectRatio="xMidYMid meet">
<metadata>
Created by potrace 1.15, written by Peter Selinger 2001-2017
</metadata>
<g transform="translate(0.000000,1280.000000) scale(0.100000,-0.100000)"
fill="#000000" stroke="none">
<path d="M3934 12770 c-109 -58 -267 -178 -289 -219 -7 -14 -16 -56 -20 -94
-5 -46 -19 -91 -42 -140 -26 -54 -37 -91 -42 -147 l-6 -74 -63 -24 c-83 -32
-89 -46 -74 -158 8 -58 20 -100 36 -129 28 -47 34 -90 61 -410 8 -99 19 -196
25 -214 11 -40 10 -41 -65 -70 -50 -19 -500 -228 -636 -296 -41 -20 -146 -76
-234 -123 -218 -118 -245 -146 -352 -362 -44 -91 -111 -237 -148 -325 -66
-158 -231 -496 -320 -656 -49 -88 -57 -135 -27 -162 10 -9 43 -28 75 -42 83
-36 185 -103 192 -125 10 -33 -14 -171 -40 -229 -14 -30 -68 -126 -119 -215
-94 -161 -166 -309 -166 -342 0 -10 -13 -76 -30 -148 -16 -72 -44 -198 -61
-281 -25 -121 -167 -591 -230 -760 -6 -16 -14 -43 -18 -60 -4 -16 -24 -70 -43
-120 -20 -49 -41 -113 -47 -140 -12 -49 -16 -54 -117 -130 -103 -78 -148 -127
-216 -235 -55 -89 -72 -145 -73 -240 l0 -85 30 0 c22 0 34 8 50 32 11 18 23
32 27 33 4 0 6 -56 4 -124 l-3 -123 -60 -104 c-95 -164 -131 -221 -158 -249
-14 -14 -25 -29 -25 -33 0 -4 -16 -32 -36 -63 -26 -40 -47 -61 -77 -75 -44
-19 -112 -25 -121 -10 -9 13 -90 23 -131 15 -43 -8 -60 -31 -80 -107 -8 -30
-28 -82 -46 -115 -28 -55 -32 -71 -42 -213 l-10 -154 -57 -121 -57 -121 -7
-199 c-11 -312 -25 -587 -37 -732 -12 -138 -3 -235 27 -292 20 -40 115 -127
159 -146 24 -10 95 -22 175 -30 74 -7 155 -17 180 -22 50 -11 100 -33 100 -44
0 -5 7 -8 15 -8 9 0 27 -7 40 -16 38 -25 248 -32 314 -10 61 20 142 21 196 2
119 -42 354 -55 505 -28 36 6 99 16 140 22 68 9 178 28 255 45 17 4 44 13 62
21 17 8 35 14 40 14 4 0 26 12 47 26 32 22 43 25 57 15 10 -6 25 -11 32 -11
11 0 15 -46 20 -232 9 -359 27 -517 107 -963 51 -283 75 -593 67 -870 l-5
-180 -52 -120 c-29 -66 -57 -148 -63 -182 -10 -56 -8 -68 16 -141 15 -44 27
-91 27 -104 0 -27 36 -87 60 -98 125 -61 186 -70 513 -70 330 0 339 3 318 127
-5 32 -21 86 -34 119 l-25 62 39 6 c38 6 39 7 39 47 0 54 -9 68 -76 120 -55
42 -115 113 -147 174 -8 17 -38 55 -66 87 -45 50 -51 61 -51 102 0 25 -7 123
-16 218 -21 228 -14 540 15 718 12 69 26 166 31 215 6 50 14 113 20 140 5 28
14 97 20 155 6 58 21 197 35 310 13 113 27 237 30 275 14 151 36 306 55 376
88 325 120 481 120 579 0 31 3 84 6 117 6 60 7 61 61 99 31 22 67 48 82 60 14
11 34 23 43 27 9 3 25 18 35 33 15 24 19 59 24 229 5 159 10 217 27 282 23 85
57 173 67 173 23 0 46 -27 61 -72 9 -29 24 -66 32 -83 41 -81 103 -285 112
-368 11 -101 38 -162 108 -247 53 -65 112 -120 129 -120 15 0 15 0 53 -228 42
-255 41 -270 -24 -465 -30 -89 -57 -178 -61 -197 -4 -19 -11 -39 -14 -45 -13
-17 -78 -236 -95 -315 -16 -75 -23 -163 -51 -600 -23 -346 -39 -470 -100 -739
-57 -252 -90 -350 -177 -524 -79 -158 -98 -221 -98 -320 0 -65 4 -89 16 -102
9 -8 59 -41 112 -72 164 -96 311 -220 387 -327 31 -43 54 -63 100 -85 105 -51
146 -62 255 -68 178 -9 263 20 306 106 30 60 36 107 20 145 -8 17 -53 74 -100
126 -93 102 -165 203 -197 274 -11 25 -31 114 -45 198 -36 219 -40 228 -99
228 -21 0 -25 6 -31 46 -9 61 1 133 37 278 44 177 63 228 219 596 151 356 167
397 224 585 20 66 52 170 71 230 49 157 55 191 109 660 16 133 26 185 71 360
22 83 26 115 22 200 -2 55 -9 132 -16 170 -18 101 -8 131 54 164 42 23 49 31
47 51 -26 199 -21 490 12 595 16 55 21 96 21 191 0 117 -1 122 -35 189 -19 38
-56 95 -83 127 -60 73 -70 99 -57 147 15 55 12 102 -9 146 -11 22 -27 85 -36
140 -24 146 -35 193 -62 254 l-24 54 11 222 c11 229 7 323 -25 675 -10 107
-25 196 -41 253 -23 77 -24 95 -15 132 17 66 13 197 -10 386 l-20 170 20 277
c34 450 32 428 47 407 8 -10 16 -35 19 -54 19 -123 50 -287 90 -476 9 -38 15
-81 15 -95 0 -48 138 -436 234 -660 97 -224 115 -257 251 -465 86 -131 195
-306 291 -465 l69 -115 5 -275 5 -275 43 -72 43 -71 -3 -334 -3 -333 -28 -55
c-15 -30 -47 -91 -72 -135 -40 -72 -45 -87 -45 -146 0 -37 7 -98 16 -138 16
-69 15 -74 -9 -198 -64 -317 -70 -375 -88 -828 -14 -372 -9 -515 26 -655 31
-128 41 -153 68 -177 21 -17 35 -18 232 -11 116 4 279 11 362 15 144 8 154 9
178 33 38 39 46 101 52 420 6 348 -10 729 -36 888 -18 105 -71 307 -91 343
-23 43 -61 172 -69 239 -6 41 -17 257 -26 480 l-15 405 23 70 c14 39 43 119
66 179 l42 108 -15 52 c-9 29 -58 135 -110 237 -89 174 -154 338 -234 589 -62
192 -147 431 -168 472 -8 14 -14 34 -14 43 0 10 -7 38 -15 64 -25 77 -96 368
-125 509 -40 194 -56 229 -228 520 -99 167 -123 236 -125 347 -2 97 10 121 65
135 112 31 210 92 227 142 14 40 14 109 0 145 -33 84 -150 426 -194 568 -10
33 -22 65 -26 70 -3 6 -10 28 -14 50 -3 22 -27 102 -52 178 -41 123 -52 145
-102 204 -43 52 -72 75 -126 102 -38 19 -77 38 -85 43 -8 4 -30 14 -48 23 -86
38 -574 398 -639 471 -17 19 -23 37 -23 73 0 64 25 195 57 295 25 80 27 83
134 186 136 132 145 150 155 325 7 128 8 131 40 170 41 51 50 75 59 156 8 77
-8 194 -34 254 -10 23 -50 77 -90 121 -39 43 -71 82 -71 85 0 4 14 12 30 18
40 13 38 23 -9 49 -35 20 -53 22 -192 22 l-153 0 -91 60 c-89 59 -171 90 -234
90 -16 0 -55 -14 -87 -30z m-1628 -5163 c-5 -82 -15 -144 -31 -196 -57 -181
-59 -203 -59 -666 -1 -419 0 -431 21 -480 17 -42 23 -84 32 -250 10 -169 42
-423 57 -447 3 -4 9 -67 14 -140 9 -123 30 -228 50 -253 14 -16 40 -100 71
-223 23 -92 31 -153 39 -311 6 -108 15 -236 20 -286 12 -114 12 -155 1 -155
-15 0 -119 111 -135 145 -9 19 -20 35 -24 37 -4 2 -29 46 -56 98 -27 52 -74
133 -105 180 -31 47 -58 90 -60 95 -4 10 -81 114 -129 175 -16 19 -43 58 -62
85 -18 28 -73 102 -121 165 -47 63 -105 144 -127 180 -21 36 -73 116 -115 177
-41 62 -83 136 -92 164 -32 96 0 224 133 530 11 25 30 81 41 125 12 43 34 96
48 116 17 26 29 62 38 120 11 74 26 111 134 333 66 138 168 342 225 455 57
113 116 236 131 274 15 38 32 78 38 88 22 35 30 -11 23 -135z"/>
</g>
</svg>
